<svg width="144" height="144" viewBox="0 0 144 144" fill="none" xmlns="http://www.w3.org/2000/svg">
<circle cx="72" cy="72" r="61" fill="#D81234"/>
<path d="M88.1968 59.6757C88.1968 62.8103 90.7141 65.3514 93.8195 65.3514C96.9248 65.3514 99.4422 62.8103 99.4422 59.6757C99.4422 56.5411 96.9248 54 93.8195 54C90.7141 54 88.1968 56.5411 88.1968 59.6757Z" fill="#D9D9D9"/>
<path d="M99.7546 71.5C99.7546 74.6346 102.272 77.1757 105.377 77.1757C108.483 77.1757 111 74.6346 111 71.5C111 68.3654 108.483 65.8243 105.377 65.8243C102.272 65.8243 99.7546 68.3654 99.7546 71.5Z" fill="#D9D9D9"/>
<path d="M88.1968 83.1667C88.1968 86.3013 90.7141 88.8423 93.8195 88.8423C96.9248 88.8423 99.4422 86.3013 99.4422 83.1667C99.4422 80.0321 96.9248 77.491 93.8195 77.491C90.7141 77.491 88.1968 80.0321 88.1968 83.1667Z" fill="#D9D9D9"/>
<path d="M76.6389 71.5C76.6389 74.6346 79.1563 77.1757 82.2617 77.1757C85.367 77.1757 87.8844 74.6346 87.8844 71.5C87.8844 68.3654 85.367 65.8243 82.2617 65.8243C79.1563 65.8243 76.6389 68.3654 76.6389 71.5Z" fill="#D9D9D9"/>
<path d="M45.8702 59.6757V65.8243H39.6227C36.5174 65.8243 34 68.3654 34 71.5C34 74.6346 36.5174 77.1757 39.6227 77.1757H45.8702V83.3243C45.8702 86.4589 48.3876 89 51.4929 89C54.5983 89 57.1157 86.4589 57.1157 83.3243L57.1156 77.1757H63.2069C66.3122 77.1757 68.8296 74.6346 68.8296 71.5C68.8296 68.3654 66.3122 65.8243 63.2069 65.8243H57.1157V59.6757C57.1157 56.5411 54.5983 54 51.4929 54C48.3876 54 45.8702 56.5411 45.8702 59.6757Z" fill="#D9D9D9"/>
</svg>
