<svg width="63" height="144" viewBox="0 0 63 144" fill="none" xmlns="http://www.w3.org/2000/svg">
<path fill-rule="evenodd" clip-rule="evenodd" d="M15.548 33.4361C14.6014 26.8808 13.6262 20.1276 15.893 12.6797C16.1182 2.62399 17.951 -0.0401432 24.0439 0.000455074C30.4947 1.50382 33.1005 8.15136 31.2891 10.8683C29.2282 12.2423 28.6159 11.5095 26.9463 9.51138C26.4148 8.87533 25.7762 8.11105 24.9495 7.2457C20.9234 6.71959 20.3954 8.45062 20.4213 12.6797C24.7185 29.8256 28.0679 38.7829 38.5344 51.6229C40.9584 51.382 41.2264 51.0263 41.7937 50.2735C42.0625 49.9168 42.3985 49.471 43.0627 48.9059C45.1871 47.1906 46.3769 47.1665 48.4966 48.9059C51.2304 57.0118 54.485 61.5779 61.1758 69.7361C62.6719 71.6779 62.8712 72.6948 61.1758 74.2639C54.485 82.4221 51.2304 86.9882 48.4966 95.094C46.3769 96.8334 45.1871 96.8094 43.0627 95.094C42.3985 94.529 42.0625 94.0832 41.7937 93.7265C41.2264 92.9737 40.9584 92.618 38.5344 92.3771C28.0679 105.217 24.7185 114.174 20.4213 131.32C20.3954 135.549 20.9234 137.28 24.9495 136.754C25.7762 135.889 26.4148 135.125 26.9463 134.489C28.6159 132.491 29.2282 131.758 31.2891 133.132C33.1005 135.849 30.4947 142.496 24.0439 144C17.951 144.04 16.1182 141.376 15.893 131.32C13.6262 123.872 14.6014 117.119 15.548 110.564C17.2489 98.7855 18.8575 87.6461 1.40245 74.2639C-0.451867 72.3673 -0.483035 71.3686 1.40245 69.7361C18.8575 56.3539 17.2489 45.2144 15.548 33.4361ZM44.8739 65.2078L32.1947 52.5286L28.5721 56.1512L43.9682 72.453L28.5721 88.7549L32.1947 92.3775L44.8739 79.6983H46.6852C46.6852 80.604 46.6852 81.0568 46.9116 81.2832C47.138 81.5096 47.5909 81.5096 48.4965 81.5096C58.2269 75.0077 58.179 71.0018 48.4965 63.3965C47.5909 63.3965 47.138 63.3965 46.9116 63.6229C46.6852 63.8493 46.6852 64.3021 46.6852 65.2078H44.8739ZM6.83639 70.6415L21.3269 54.3397C23.9757 54.5091 24.3132 55.5048 24.0439 57.9623L11.3647 72.4528L24.0439 87.849C23.8438 89.626 23.0989 90.0954 21.3269 90.566L6.83639 73.3585C6.09607 72.2397 6.02449 71.6392 6.83639 70.6415ZM21.3269 70.6415L26.7607 63.3965C28.3163 62.4092 29.092 62.5345 30.3834 63.3965L35.8173 70.6417C36.9267 72.1253 36.8676 72.9118 35.8173 74.2644L30.3834 81.5096C29.0917 82.7051 28.315 82.8355 26.7607 81.5096L21.3269 74.2644C20.1288 72.7139 20.0861 71.9306 21.3269 70.6415Z" fill="url(#paint0_linear_7_582)"/>
<defs>
<linearGradient id="paint0_linear_7_582" x1="62.9872" y1="72.453" x2="-0.40883" y2="72.453" gradientUnits="userSpaceOnUse">
<stop stop-color="#C7C9CA"/>
<stop offset="1" stop-color="#848689"/>
</linearGradient>
</defs>
</svg>
