<svg width="144" height="144" viewBox="0 0 144 144" fill="none" xmlns="http://www.w3.org/2000/svg">
<path d="M134.157 30.915C133.272 30 131.91 29.739 130.749 30.273L130.257 30.498C129.84 30.69 129.423 30.882 129.003 31.071C130.224 29.124 131.193 27.042 131.862 24.888C132.234 23.7 131.829 22.401 130.845 21.633C129.861 20.865 128.505 20.784 127.44 21.435C124.017 23.514 120.729 25.011 117.33 26.055C112.2 21.078 105.213 18 97.5 18C81.759 18 69 30.759 69 46.5C69 46.515 69 47.109 69 48L66.003 47.76C36.834 44.31 28.53 24.69 28.185 23.844C27.627 22.434 26.397 21.405 24.912 21.096C23.43 20.781 21.891 21.246 20.817 22.317C20.223 22.914 15 28.44 15 39C15 46.524 18.354 52.626 22.695 57.372C20.673 56.139 19.494 55.14 19.464 55.113C18.081 53.907 16.101 53.655 14.457 54.489C12.819 55.326 11.853 57.075 12.018 58.908C12.075 59.541 13.353 71.547 27.222 80.613L24.693 81.072C23.16 81.351 21.879 82.404 21.309 83.856C20.742 85.311 20.964 86.952 21.9 88.2C22.215 88.623 28.074 96.24 40.797 100.62C34.002 102.885 24.666 105 13.5 105C11.736 105 10.131 106.032 9.40198 107.64C8.66998 109.248 8.94898 111.135 10.113 112.461C10.596 113.016 22.305 126 52.5 126C102.639 126 126 79.455 126 48V46.5C126 46.056 125.952 45.621 125.934 45.183C132.21 39.117 134.571 34.566 134.685 34.341C135.252 33.201 135.042 31.827 134.157 30.915Z" fill="#D9D9D9"/>
</svg>
