<svg width="1920" height="867" viewBox="0 0 1920 867" fill="none" xmlns="http://www.w3.org/2000/svg">
<path d="M672.737 583.014C694.847 565.223 716.869 547.622 730.519 546.565C731.765 544.118 733.487 542.946 736.447 540.832C740.406 540.263 742.681 540.647 746.876 542.895C772.04 543.926 784.566 550.424 805.285 568.062L803.56 570.79L800.112 576.245L800.112 595L799.5 609.5L738.954 616.173L689.237 617L684.737 606L682.237 599L678.737 591.638L674.737 585.5L672.737 583.014Z" fill="url(#paint0_linear_6_360)"/>
<path d="M716.047 555.497C708.479 560.091 691.787 569.776 691.182 570.431C683.158 575.839 678.817 580.238 673.237 587L671.737 585C675.455 579.456 690.148 565.994 698.275 561.716C709.83 552.706 716.979 549.358 730.702 545.882C731.816 543.74 733.138 542.734 736.014 541.082C741.252 539.935 743.89 540.588 748.242 543.261C773.894 543.802 785.642 548.834 802.236 565.781L805.419 570.294L801.454 571.428C787.062 562.983 778.816 559.041 763.67 553.983C763.265 553.054 763.601 552.495 765.085 551.434C778.411 555.791 785.81 559.11 798.771 567.781C790.136 558.044 784.454 553.29 769.415 548.934C760.714 546.529 755.421 546.082 746.577 545.377C744.35 547.554 742.878 548.265 740.081 549.127C738.391 550.721 739.183 550.94 742.63 550.542C752.689 550.369 756.123 552.969 759.737 553.5C753.388 553.922 750.473 552.227 740.849 554.457C737.696 555.762 736.583 556.713 738.019 559.555C740.087 560.746 742.062 560.602 746.947 559.019C763.829 558.665 772.758 561.304 787.928 570L795.325 573.812L792.544 575.995L771.786 566.04L741.818 563.135L734.774 568.934C746.736 568.946 752.543 569.575 758.795 573.54C766.762 580.078 765.839 579.212 770.608 580L765.095 581.451C753.894 573.35 746.576 570.003 735.542 574.264C721.939 578.694 760.637 585.15 762.737 592C757.917 591.548 754.777 591.133 733.237 584.5C725.335 585.651 723.089 587.325 723.737 592.5C718.939 588.814 717.082 588.467 716.025 592.46C711.195 585.454 700.482 588.04 681.237 596.5L680.237 594C682.412 589.16 715.236 583.055 714.105 579.135C710.679 577.406 708.699 577.397 704.994 580.354C703.919 578.514 701.57 580.111 697.316 583.055L701.012 577.457C708.237 574.282 711.604 574.142 715.77 577.019C721.98 573.581 720.157 575.226 718.237 571.5C714.911 570.952 710.809 570.157 697.237 576C688.441 580.308 684.064 582.602 678.237 590L675.237 588C681.548 582.505 685.416 579.352 695.737 573C705.194 568.997 707.924 568.16 723.237 562.5C723.563 561.109 725.445 558.512 724.243 557.694C720.037 558.427 718.608 557.378 716.076 555.519L716.047 555.497Z" fill="url(#paint1_linear_6_360)"/>
<path d="M707.737 595.5L687.236 605L687.736 610.5L709.236 603L717.736 605.5L715.736 603L712.736 599.5L715.736 596.5L707.737 595.5Z" fill="#1C1C1B"/>
<path d="M816.5 504C858.381 498.515 881.456 506.908 921.5 553L906.5 660L808.5 639.5C771.935 558.247 778.533 512.92 816.5 504Z" fill="#363634"/>
<ellipse cx="839.109" cy="563.124" rx="27.3307" ry="42.7573" transform="rotate(-28 839.109 563.124)" fill="#1C1C1B"/>
<path d="M818.5 534C819.13 561.014 820.495 569.512 824.5 574.5C818.625 546.076 825.895 539.443 853.5 540.5L837.5 588L823.5 591C805.305 561.448 806.013 549.777 818.5 534Z" fill="#2D2B29"/>
<path d="M880.5 588.5C884.445 572.673 883.576 563.517 880 547C896.116 557.45 900.266 569.255 903 596L880.5 588.5Z" fill="#262624"/>
<path d="M907 578.5C902.517 558.438 898.537 548.547 887 535C898.368 540.187 904.208 548.326 914 569L907 578.5Z" fill="#262624"/>
<path d="M829.5 569C831.207 579.627 832.867 582.079 837 587L842.5 593.5H856L871.5 587L868 557.5C864.188 551.787 861.992 549.839 858 548C853.002 545.881 850.401 545.672 846 546.5C842.157 547.429 840.243 548.096 838 550C833.564 555.964 832.999 558.167 833 561.5C832.561 564.717 831.822 567.952 829.5 569Z" fill="#262624"/>
<path d="M822 523C812.209 530.448 811.442 534.806 808 542.5C818.515 525.316 827.712 523.27 849.5 532C840.678 524.944 835.903 520.669 822 523Z" fill="#080808"/>
<path d="M824.5 510C831.318 507.167 836.082 507.506 845.5 510L849 509C844.768 504.591 840.13 503.358 823 506V510C826.548 514.187 828.94 516.055 834 518.5C817.741 517.563 810.912 521.536 804 539C800.55 521.549 796.303 524.098 786.5 540.5C792 490.5 847 484 909.5 537.5C887.85 521.318 875.71 513.061 854 508.5L853 511C852.59 512.335 855.288 513.502 863 516C860.433 516.12 858.792 516.3 853 517C852.619 518.424 852.522 519.418 852.5 521.5L863 520C866.68 518.161 867.339 516.761 867.5 514L872 515C871.485 520.479 870.595 522.792 867.5 525L858 525.5L858.5 530H854.5C852.16 525.197 848.978 523.386 841.5 521L849 520V517.5C844.783 514.832 837.876 513.115 824.5 510Z" fill="#0C0C0C"/>
<path d="M792.5 577.5C789.646 576.133 788.247 574.363 786 570C785.519 574.778 786.356 577.423 786.5 582C789.882 585.85 791.984 587.549 796 590C800.395 586.612 802.293 584.47 803 579.5C805.986 582.538 807.619 585.271 810.5 591L815 588.5C807.824 579.825 806.211 576.01 800.5 564.5C794.591 569.914 792.606 572.789 792.5 577.5Z" fill="#3D3C38"/>
<path d="M800 571.5C798.417 575.163 797.288 577.07 794.5 580H789C791.384 582.035 792.919 583.146 796.5 585C797.165 582.627 797.682 581.275 801 578.5C801.612 575.414 801.194 573.951 800 571.5Z" fill="#2D2B29"/>
<path d="M799.5 519C799.5 519 801.278 517.531 802.5 517C803.722 516.469 806.585 516.359 809.5 522L808 526C805.446 521.844 803.663 520.173 799.5 519Z" fill="#4F4E4B"/>
<path d="M796 524L797.5 522C802.887 523.319 803.522 525.155 804.5 528.5C802.009 525.337 800.412 523.905 796 524Z" fill="#4F4E4B"/>
<path d="M806.5 516.5C806.031 514.12 805.96 512.88 806.5 511C807.883 510.581 808.955 510.671 811.5 511.5C814.02 514.457 814.571 516.42 814 520.5C811.788 519.908 810.291 519.229 806.5 516.5Z" fill="#4F4E4B"/>
<path d="M819.5 507.5C817.895 507.313 817.107 507.299 816 507.5C814.292 507.847 814.03 508.513 814 510C814.606 513.042 815.636 514.102 818 515.5C819.384 512.276 820.07 510.479 819.5 507.5Z" fill="#4F4E4B"/>
<path d="M824 506C827.151 504.583 827.94 504.98 829.5 505.5C826.397 507.297 825.163 508.538 823.5 511C822.748 508.041 822.52 506.588 824 506Z" fill="#4F4E4B"/>
<path d="M790 543.5C792.824 536.38 794.349 531.879 798 532C801.083 534.24 800.088 538.761 799 546C797.759 558.135 795.963 562.843 790 566C788.537 559.053 788.236 554.502 790 543.5Z" fill="#1E1A1A"/>
<path d="M859 529.5L855 530L854 535.5C858.365 534.719 860.906 535.755 865.5 538.5L866.5 534C873.672 530.504 878.757 532.847 877 517C876.505 522.05 876.137 524.822 872 527.5C869.932 526.746 869.131 526.165 868 525C867.246 528.19 866.325 529.337 864 530.5C861.476 531.006 860.559 530.507 859 529.5Z" fill="#1E1A1A"/>
<path d="M854.5 535.5C865.586 544.029 869.65 550.217 875 562.5C874.9 556.035 874.005 552.31 871 545.5C864.865 535.971 861.25 533.83 854.5 535.5Z" fill="#2D2B29"/>
<path d="M805 616.014C827.111 598.223 849.133 580.622 862.783 579.565C864.029 577.118 865.75 575.946 868.711 573.832C872.669 573.263 874.945 573.647 879.139 575.895C904.304 576.926 916.829 583.424 937.548 601.062L935.824 603.79L932.375 609.245L925.478 620.155L917.096 624.638L871.217 649.173L821.5 650L817 639L814.5 632L811 624.638L807 618.5L805 616.014Z" fill="url(#paint2_linear_6_360)"/>
<path d="M848.31 588.497C840.742 593.091 824.05 602.775 823.445 603.43C815.421 608.838 811.08 613.238 805.5 620L804 618C807.718 612.456 822.411 598.994 830.539 594.716C842.094 585.706 849.242 582.358 862.966 578.881C864.079 576.74 865.402 575.734 868.278 574.082C873.516 572.934 876.154 573.588 880.505 576.261C906.157 576.802 917.905 581.834 934.499 598.781L937.682 603.294L933.718 604.428C919.325 595.983 911.08 592.041 895.933 586.983C895.528 586.054 895.865 585.495 897.348 584.434C910.674 588.791 918.073 592.11 931.035 600.781C922.4 591.044 916.718 586.29 901.678 581.934C892.977 579.529 887.684 579.082 878.84 578.377C876.613 580.554 875.142 581.265 872.345 582.127C870.655 583.721 871.446 583.94 874.894 583.542C884.952 583.369 888.386 585.969 892 586.5C885.652 586.922 882.736 585.227 873.113 587.457C869.959 588.762 868.846 589.713 870.283 592.555C872.351 593.746 874.326 593.602 879.211 592.019C896.093 591.665 905.021 594.304 920.192 603L927.589 606.812L924.808 608.995L904.049 599.04L874.082 596.135L867.037 601.934C878.999 601.946 884.807 602.575 891.059 606.54C899.026 613.078 898.102 612.212 902.871 613L897.358 614.451C886.157 606.35 878.839 603.003 867.805 607.264C854.202 611.694 892.9 618.15 895 625C890.18 624.548 887.041 624.133 865.5 617.5C857.598 618.651 855.353 620.325 856 625.5C851.202 621.814 849.346 621.467 848.289 625.46C843.458 618.454 832.746 621.04 813.5 629.5L812.5 627C814.675 622.16 847.5 616.055 846.369 612.135C842.943 610.406 840.963 610.397 837.258 613.354C836.182 611.514 833.833 613.111 829.579 616.055L833.276 610.457C840.5 607.282 843.868 607.142 848.034 610.019C854.243 606.581 852.42 608.226 850.5 604.5C847.175 603.952 843.073 603.157 829.5 609C820.704 613.308 816.327 615.602 810.5 623L807.5 621C813.811 615.504 817.679 612.352 828 606C837.457 601.997 840.187 601.16 855.5 595.5C855.826 594.109 857.708 591.512 856.506 590.694C852.301 591.427 850.872 590.378 848.339 588.519L848.31 588.497Z" fill="url(#paint3_linear_6_360)"/>
<path d="M840 628.5L819.5 638L820 643.5L841.5 636L850 638.5L848 636L845 632.5L848 629.5L840 628.5Z" fill="#1C1C1B"/>
<ellipse cx="1012.5" cy="492.816" rx="73.8049" ry="91.065" transform="rotate(-160 1012.5 492.816)" fill="#31302C"/>
<path d="M981.5 421C995.492 408.489 1001.87 406.516 1016 408.5C1019.7 414.97 1016.53 420.579 1001 432C990.68 441.978 984.429 447.115 967 448C964.585 436.013 968.69 428.466 981.5 421Z" fill="#161615"/>
<path d="M970.5 446C990 439 999.285 433.524 1014.5 417.5C1016.21 413.795 1015.58 412.337 1012.5 410.5C1002.73 410.277 996.47 412.934 984 422.5C967.685 436.708 968.5 441 970.5 446Z" fill="#4F4E4B"/>
<path d="M1041.5 406.5C1040.93 405.565 1038.08 405.191 1030 404V416.909L1035 419L1041.5 406.5Z" fill="#5D5D5D"/>
<path d="M1028 404C1028.6 404.23 1029.14 403.714 1023.5 403.5L1020.5 417.432H1028V404Z" fill="#5D5D5D"/>
<path d="M1021 403.5C1020.34 403.948 1019.34 403.105 1013.5 404.364C1016.85 409.119 1017.49 411.621 1017 415.864L1020.5 414.818L1021 403.5Z" fill="#5D5D5D"/>
<path d="M1054.5 412.5L1049.5 409.591C1043.02 406.458 1040.63 409.365 1037 416.909L1042.5 419C1045.34 413.652 1048.34 412.797 1054.5 412.5Z" fill="#5D5D5D"/>
<path d="M1059.5 447.5C1054.39 440.628 1052.65 436.127 1048.5 428L1044.5 426.5C1050.61 434.703 1053.19 439.652 1056.5 449L1059.5 447.5Z" fill="#212020"/>
<ellipse cx="1016.87" cy="472.069" rx="32.0551" ry="47.9241" transform="rotate(-160 1016.87 472.069)" fill="#101010"/>
<path d="M966.499 451.56H972.999C961.376 463.336 956.981 472.358 950.499 490L949.999 478.934L958.999 458.549C960.549 451.44 960.29 448.985 958.999 445.736C956.548 445.137 953.803 448.154 948.999 453.308C951.506 446.935 953.222 443.363 960.499 437C962.933 439.478 963.535 441.121 962.999 444.571C963.681 450.581 963.289 453.552 961.999 458.549L966.499 451.56Z" fill="#0C100C"/>
<path d="M1037.5 414C1037.95 411.324 1036.9 408.791 1041.5 406.5C1045.32 407.276 1046.94 408.84 1050 409.938C1046.53 409.259 1044.03 408.403 1043.13 409.938C1040.92 411.864 1040.86 412.467 1037.5 414Z" fill="#161615"/>
<path d="M1038.55 416.111L1035.69 416.42V420.432L1028.82 419.815C1033.22 414.262 1032.91 410.009 1030 404L1027.43 403.974C1028.87 409.571 1028.97 413.684 1023.67 419.172L1017.37 418.889C1020.69 416.801 1022.28 415.528 1023.67 412.716C1025.2 409.373 1024.91 406.209 1023.5 403.5H1020.8C1020.36 404.464 1021.25 406.536 1020.8 407.5C1020.48 409.295 1020.89 410.522 1020.8 412.099C1019.94 415.302 1017.41 416.544 1013.36 418.889L1010.5 421.049C1021.35 420.079 1027.78 421.909 1040.84 423.827L1041.99 422.901L1038.55 421.049V416.111Z" fill="#161615"/>
<ellipse cx="1060.8" cy="434.059" rx="3.71842" ry="16.3991" transform="rotate(-35 1060.8 434.059)" fill="#040404"/>
<ellipse cx="993.77" cy="425.232" rx="4.96891" ry="18.0836" transform="rotate(-124 993.77 425.232)" fill="#080804"/>
<path d="M1048.5 431C1033.31 418.808 1023.5 418.55 1003.5 431C1011.8 423.161 1014.91 419.532 1016.5 415C1027.36 421.838 1034.64 421.831 1048.5 419V431Z" fill="#101010"/>
<path d="M1056 468C1056.76 459.677 1056.91 454.701 1056 444.5C1064.36 449.986 1068.26 454.004 1074.5 462L1070.5 463.5L1070.42 463.405C1067.87 460.263 1066.42 458.471 1061.5 458C1060.95 460.424 1060.81 461.938 1061.5 465.5C1060.42 467.724 1059.39 468.465 1056 468Z" fill="#101010"/>
<path d="M1043.5 503C1051.06 490.268 1055.04 482.998 1057 467.5V463.5C1057.89 459.631 1059.17 460.161 1062 463C1060.3 467.372 1062.2 468.389 1067 469.5C1068.59 468.078 1069.67 467.299 1072.5 466C1071.71 470.789 1073.5 472.569 1078.5 475C1072.56 476.233 1069.08 476.538 1061 472.5C1058.26 484.969 1052.7 491.411 1043.5 503Z" fill="#212020"/>
<path d="M1054.5 412.5C1078.92 425.563 1086.54 457.737 1086 461C1085.63 463.25 1081.53 458.208 1080.47 457.748C1080.81 458.806 1081.15 459.89 1081.5 461C1080.13 458.263 1079.99 457.541 1080.47 457.748C1072.77 434.042 1065.62 423.305 1047 413.5L1051 412C1051 412 1030.08 399.437 1054.5 412.5Z" fill="#080804"/>
<path d="M903.5 526.5C903.377 507.77 922.784 502.817 971.5 498C1032.33 495.315 1046.49 502.335 1044.5 526.5C1044.04 582.87 1048.26 608.334 1058.5 650L1039 693L963 713L918 663L901.5 598C903.326 573.591 903.817 558.098 903.5 526.5Z" fill="url(#paint4_linear_6_360)"/>
<path d="M956.5 503.5L957.5 499.5L961.5 499L960 503.5H963L966 500.5L969 503L972.5 503.5V499H978.5L976 501.5V503.5C1034.03 503.103 1046.23 516.183 1040.5 557.5C1040.15 517.528 1024.79 507.08 972.5 508V514C1024.69 512.994 1036.03 527.887 1036.5 571.5C1031.14 532.958 1017.68 520.556 968 521L967 527.5C1012.49 527.176 1028.33 535.376 1029.5 573.5V580.5L1023.5 579.5C1022.64 543.574 1008.41 534.83 964 535C960.865 537.159 960.145 538.552 961.5 541.5C1005.28 541.105 1017.3 549.448 1019.5 577.5L1019 586L1010.5 585.5V563C995.858 549.518 984.327 547.881 961.5 549C998.735 558.52 1008.35 565.947 1005.5 583C995.32 574.667 1001 557.843 966 576C964.489 571.344 966.135 570.176 971.5 569.5C971.735 566.127 970.253 564.792 963 564C959.533 565.976 958.183 565.829 956.5 564C955.915 561.656 956.492 560.432 960 558.5L958 553.5C956.749 553.539 955.705 553.145 951 549C948.213 547.628 946.388 547.621 943 548C937.976 545.401 934.577 546.573 927.5 553.5C921.781 558.099 918.409 560.601 922 569.5C919.065 578.415 918.304 584.015 916 594L911 587C910.988 580.271 911.777 577.944 915.5 578C912.074 577.046 911.015 574.811 912.5 567C915.125 556.714 917.052 551.527 925 548C932.35 539.233 937.524 537.829 948 539.5L948.5 533.5C923.983 529.344 915.637 537.229 908 565C909.352 529.824 918.916 522.676 949 528.5L951 518.5C923.804 518.615 914.301 524.324 905.5 542.5V589L902 585.5V542.5C910.33 515.234 924.531 512.477 954 513V508C932.215 505.68 921.284 508.752 904.5 523.5L907.5 515C914.22 505.313 924.443 502.581 956.5 503.5Z" fill="url(#paint5_linear_6_360)"/>
<path d="M955 514C956.245 510.731 957.639 509.441 962.5 509C969.281 510.203 969.78 512.191 967.5 517C963.788 515.517 962.954 514.768 962.5 513.5C958.522 515.458 956.917 515.507 955 514Z" fill="url(#paint6_linear_6_360)"/>
<path d="M959.5 523.5C956.834 523.661 955.626 523.946 955 525.5C955.078 527.528 955.862 528.613 958 530.5C960.672 529.553 961.711 528.811 962.5 527C961.833 524.877 961.12 524.194 959.5 523.5Z" fill="url(#paint7_linear_6_360)"/>
<path d="M958 544.5L954 541.5L951 545.5L954 550.5L958 544.5Z" fill="url(#paint8_linear_6_360)"/>
<path d="M959.5 558.5L956 553.5L953 555.5L956 559.5L959.5 558.5Z" fill="url(#paint9_linear_6_360)"/>
<path d="M945 556.5L948 553.5L951 554.5L949 558.5L945 556.5Z" fill="url(#paint10_linear_6_360)"/>
<path d="M939 561L931.5 564L933.5 565.5L937.5 570.5L940.5 569L939 561Z" fill="url(#paint11_linear_6_360)"/>
<path d="M952.5 571L949 566.5L944.5 569L948 572L952.5 571Z" fill="url(#paint12_linear_6_360)"/>
<path d="M966.5 565.5L959 564.5L958.5 568L961.5 570.5L966 568.5L966.5 565.5Z" fill="url(#paint13_linear_6_360)"/>
<path d="M1022 499C1006.17 498.5 974.3 497.5 973.5 497.5L976 500.5C996.985 499.508 1006.87 498.965 1022 501C1038.22 499.538 1041.22 507.607 1043 526.5L1044 592H1048.5C1041.77 525.361 1051.9 497.152 1022 499Z" fill="url(#paint14_linear_6_360)"/>
<path d="M716 596C744.044 591.648 757.65 590.591 770 596.5C772.303 595.004 774.379 594.85 778 594.5C781.713 595.986 783.491 597.456 786 601.5C807.278 614.975 814.876 626.866 824 652.5L821.143 654L815.429 657L804 663L794.5 662.691L742.5 661L704.5 629L708.159 618.5L711 610.348L712.689 605.5L715.303 598L716 596Z" fill="url(#paint15_linear_6_360)"/>
<path d="M753 597C744.149 597.194 724.851 597.235 724 597.5L717.5 601.5L715 596.5C722.097 595.006 726.134 594.205 734.5 593.5C749.012 591.474 756.877 592.149 770.5 596C772.535 594.702 774.183 594.492 777.5 594.5C782.61 596.125 784.568 598.01 787 602.5C808.945 615.795 816.603 626.027 822.5 649L823 654.5L819 653.5C810.758 638.99 805.588 631.454 795 619.5C795.114 618.493 795.685 618.177 797.5 618C806.862 628.436 811.61 635.01 818.5 649C815.89 636.25 813.346 629.292 802.5 618C796.868 611.248 793.081 607.953 784.5 603.5C781.483 604.272 779.853 604.152 777 603.5C774.739 604.036 775.315 604.621 778.5 606C790.155 607.675 792.03 611.11 793 615.5C790.367 610.586 787.527 609.274 775 608.5C771.617 608.053 770.177 608.32 770 611.5C771.195 613.566 772.978 614.429 778 615.5C792.797 623.634 799.21 630.384 808 645.5L812.5 652.5L809 653L796 634L771.5 616.5L762.5 618C772.853 623.991 777.568 627.44 781 634C784.631 643.645 784.264 642.434 788 645.5L782.5 644C776.85 631.384 772.186 624.827 760.5 623C751.758 623.704 748.197 625.526 743 630L734.5 629L731 619C737.294 619.48 739.537 619.12 739.5 616.5C737.397 613.29 735.687 612.292 731 613C730.989 610.869 728.156 611.077 723 611.5L729 608.5C736.844 609.363 739.83 610.926 742 615.5C746.902 613.431 748.498 611.883 749.5 608.5C737.52 605.416 732.583 604.358 726.5 603.5L720 609L717.5 606L723.5 600C732.587 599.631 741.251 601.537 758.5 606C759.478 604.959 759.632 604.309 759 603C754.991 601.533 754.278 599.91 753.015 597.033L753 597Z" fill="#080808" fill-opacity="0.6"/>
<path d="M1147.74 582.014C1169.85 564.223 1191.87 546.622 1205.52 545.565C1206.77 543.118 1208.49 541.946 1211.45 539.832C1215.41 539.263 1217.68 539.647 1221.88 541.895C1247.04 542.926 1271.28 558.362 1292 576L1288.5 576.568L1281.5 579.727L1268.21 586.155L1259.83 590.638L1256.5 625.5L1247.5 630.5L1213.95 615.173L1164.24 616L1159.74 605L1157.24 598L1153.74 590.638L1149.74 584.5L1147.74 582.014Z" fill="url(#paint16_linear_6_360)"/>
<path d="M1191.05 554.497C1183.48 559.091 1166.79 568.775 1166.18 569.43C1158.16 574.838 1153.82 579.238 1148.24 586L1146.74 584C1150.45 578.456 1165.15 564.994 1173.28 560.716C1184.83 551.706 1191.98 548.358 1205.7 544.881C1206.82 542.74 1208.14 541.734 1211.01 540.082C1216.25 538.934 1218.89 539.588 1223.24 542.261C1248.89 542.802 1260.64 547.834 1277.24 564.781L1280.42 569.294L1276.45 570.428C1262.06 561.983 1253.82 558.041 1238.67 552.983C1238.26 552.054 1238.6 551.495 1240.08 550.434C1253.41 554.791 1260.81 558.11 1273.77 566.781C1265.14 557.044 1259.45 552.29 1244.42 547.934C1235.71 545.529 1230.42 545.082 1221.58 544.377C1219.35 546.554 1217.88 547.265 1215.08 548.127C1213.39 549.721 1214.18 549.94 1217.63 549.542C1227.69 549.369 1231.12 551.969 1234.74 552.5C1228.39 552.922 1225.47 551.227 1215.85 553.457C1212.7 554.762 1211.58 555.713 1213.02 558.555C1215.09 559.746 1217.06 559.602 1221.95 558.019C1238.83 557.665 1247.76 560.304 1262.93 569L1270.33 572.812L1267.54 574.995L1246.79 565.04L1216.82 562.135L1209.77 567.934C1221.74 567.946 1227.54 568.575 1233.8 572.54C1241.76 579.078 1240.84 578.212 1245.61 579L1240.09 580.451C1228.89 572.35 1221.58 569.003 1210.54 573.264C1196.94 577.694 1235.64 584.15 1237.74 591C1232.92 590.548 1229.78 590.133 1208.24 583.5C1200.33 584.651 1198.09 586.325 1198.74 591.5C1193.94 587.814 1192.08 587.467 1191.03 591.46C1186.19 584.454 1175.48 587.04 1156.24 595.5L1155.24 593C1157.41 588.16 1190.24 582.055 1189.11 578.135C1185.68 576.406 1183.7 576.397 1179.99 579.354C1178.92 577.514 1176.57 579.111 1172.32 582.055L1176.01 576.457C1183.24 573.282 1186.6 573.142 1190.77 576.019C1196.98 572.581 1195.16 574.226 1193.24 570.5C1189.91 569.952 1185.81 569.157 1172.24 575C1163.44 579.308 1159.06 581.602 1153.24 589L1150.24 587C1156.55 581.504 1160.42 578.352 1170.74 572C1180.19 567.997 1182.92 567.16 1198.24 561.5C1198.56 560.109 1200.44 557.512 1199.24 556.694C1195.04 557.427 1193.61 556.378 1191.08 554.519L1191.05 554.497Z" fill="url(#paint17_linear_6_360)"/>
<path d="M1182.74 594.5L1162.24 604L1162.74 609.5L1184.24 602L1192.74 604.5L1190.74 602L1187.74 598.5L1190.74 595.5L1182.74 594.5Z" fill="#1C1C1B"/>
<ellipse cx="1102.14" cy="564.296" rx="64.2487" ry="79.2741" transform="rotate(-160 1102.14 564.296)" fill="#434342"/>
<ellipse cx="1100.06" cy="571.887" rx="38.6763" ry="52.591" transform="rotate(-160 1100.06 571.887)" fill="#2D2B29"/>
<path d="M1061.5 528.5H1068C1056.38 538.609 1051.98 546.355 1045.5 561.5L1045 552L1054 534.5C1055.55 528.397 1055.29 526.289 1054 523.5C1051.55 522.986 1048.8 525.576 1044 530C1046.51 524.529 1048.22 521.462 1055.5 516C1057.93 518.127 1058.54 519.538 1058 522.5C1058.68 527.659 1058.29 530.21 1057 534.5L1061.5 528.5Z" fill="#2D2B29"/>
<path d="M1122.5 502.5C1122.89 498.165 1122.98 495.712 1127 492C1131.42 491.846 1133.27 492.494 1135 495.5C1131.97 494.399 1129.79 493.013 1129 495.5C1127.07 498.62 1125.43 500.016 1122.5 502.5Z" fill="#31302C"/>
<path d="M1125 505.5L1122.5 506V512.5L1116.5 511.5C1120.34 502.505 1120.54 497.235 1118 487.5H1116.5C1117.76 496.567 1117.14 501.61 1112.5 510.5L1106.5 510C1109.4 506.617 1110.79 504.555 1112 500C1113.34 494.584 1113.23 491.889 1112 487.5H1109.5C1109.11 489.062 1110.39 489.938 1110 491.5C1111.32 494.401 1110.87 496.44 1109.5 499C1108.75 504.19 1106.54 506.201 1103 510L1100.5 513.5C1109.98 511.929 1115.6 514.893 1127 518L1128 516.5L1125 513.5V505.5Z" fill="#31302C"/>
<path d="M1071.5 528C1103.85 504.708 1111.42 495.561 1094.5 490.5C1104.84 496.198 1097.66 504.208 1066 525.5L1071.5 528Z" fill="#31302C"/>
<path d="M1153 552L1147 557.5C1146.04 543.808 1143.35 537.333 1135.5 527.5L1136 523.5C1136.57 507.364 1139.83 505.736 1145.5 502.5L1149 508C1141.91 508.874 1139.98 513.098 1140.5 527.5C1146.41 535.123 1149.07 540.637 1153 552Z" fill="#262624"/>
<path d="M1129 519C1128.84 506.567 1129.8 500.633 1137.5 496L1140.5 499C1131.99 502.897 1130.18 509.298 1132 518C1133.64 519.767 1134.32 520.555 1134.5 521.5V526C1133.44 522.844 1132.76 521.107 1129 519Z" fill="#262624"/>
<ellipse cx="1154.1" cy="533.832" rx="4.32554" ry="19.5342" transform="rotate(-19 1154.1 533.832)" fill="#1C1C1B"/>
<ellipse cx="1073.9" cy="508.655" rx="4.32554" ry="19.5342" transform="rotate(-129 1073.9 508.655)" fill="#2D2B29"/>
<path d="M1108.76 619.119C1130.87 601.327 1142.13 593.609 1155.78 592.552C1157.02 590.105 1158.74 588.933 1161.7 586.82C1165.66 586.25 1167.94 586.634 1172.13 588.882C1196.51 586.284 1230.83 611.308 1252 631L1244 635L1236.5 635.5L1226.58 642.525L1218.5 649.5L1169 664.5L1115.3 653.447L1113.22 642.525L1111.6 634.044L1110.64 629.001L1109.16 621.199L1108.76 619.119Z" fill="url(#paint18_linear_6_360)"/>
<path d="M1180 604.5C1201.06 606.956 1212.6 612.507 1232.5 632.5L1228.5 633.5C1211.59 616.932 1200.93 610.712 1180 604.5Z" fill="url(#paint19_linear_6_360)"/>
<path d="M1242.5 632C1220.28 602.878 1207.03 592.938 1172 588.5L1171.5 590C1195.44 592.774 1211.05 597.886 1214.5 606.5C1211.05 603.749 1209.27 604.171 1205 604C1224.38 612.752 1230.6 619.895 1240 632.5L1242.5 632Z" fill="url(#paint20_linear_6_360)"/>
<path d="M1156.5 591.5C1161.03 585.764 1164.57 585.528 1172 588.5L1169.5 592.5C1168.21 590.469 1167.44 590.054 1166 590.5C1162.08 589.512 1160.47 589.696 1160 593C1160.16 594.557 1161 594.857 1163 595C1163.69 595.85 1163.25 596.21 1160 596.5C1158.07 594.861 1157.7 594.193 1158.5 593.5C1153.92 593.055 1150.58 594.599 1145 596.5C1147.95 594.358 1149.97 593.201 1156.5 591.5Z" fill="url(#paint21_linear_6_360)"/>
<path d="M1160.5 604.5L1159 600.5C1158.67 600.667 1157.9 600.9 1157.5 600.5C1157 600 1157 600 1157 599.5V598C1157 597.2 1158 597.667 1158.5 598C1158.55 598.95 1158.78 599.386 1159.5 600L1161 600.5C1161.27 600.724 1161.48 600.638 1162 600C1162.97 599.909 1162.96 599.572 1163 599C1164.08 598.422 1164.09 597.317 1163 597C1162.62 596.889 1164 595.833 1164.5 595.5C1165.03 594.866 1165.39 594.692 1166.5 595.5C1167.13 596.234 1167.33 596.552 1167.5 597C1167.6 598.105 1166.39 598.971 1166 599C1164.61 599.105 1164.58 600.61 1165.5 601C1163.93 600.632 1163.27 600.938 1162.5 602.5C1161.74 602.736 1161.77 603.314 1162.5 605C1161.23 605.662 1161.1 606.112 1161.5 607C1163.22 608.239 1163.72 607.873 1164.5 607C1167.41 606.785 1167.98 605.871 1168 603.5C1167.88 601.878 1168.36 601.617 1169.5 601.5C1170.32 600.767 1170.76 600.846 1171.5 601.5C1171.91 602.252 1171.75 602.517 1171.5 603L1171.52 602.988C1172.09 602.66 1172.42 602.472 1173 603C1173.77 603.544 1173.92 603.881 1174 604.5C1176.76 605.705 1177.04 606.199 1177 607C1174.89 605.929 1173.83 605.639 1172.5 606.5C1170.86 606.313 1170.19 606.605 1169.5 608C1167.66 607.87 1166.94 608.272 1166 609.5C1164.9 609.165 1164.19 609.266 1163 610C1159.28 609.39 1158.32 610.064 1158.5 613C1156.94 611.439 1155.9 611.861 1154 613C1153.39 610.168 1153.02 608.644 1151 609C1149.56 608.181 1149.32 608.644 1149.5 610.5L1151.5 613.5L1154.5 616.5C1151.78 615.68 1150.4 615.476 1149 617L1149.5 619.5C1147.67 618.443 1146.45 618.736 1144 620.5L1140.5 625L1138 621.5C1142.57 620.652 1143.38 620.011 1141 618.5C1146.94 618.374 1147.66 617.483 1144.5 614.5L1143 612C1140.09 610.409 1138.36 610.962 1135 616C1132.73 615.603 1131.52 614.242 1129 618C1126.41 617.051 1127.02 619.606 1128 624C1126.89 620.867 1125.99 619.614 1123.5 619C1126.25 618.003 1126.62 616.944 1126 614.5C1129.64 615.397 1131.7 614.978 1135.5 612.5L1136.5 610L1140.5 609H1147C1149.25 605.485 1150 604.638 1150.5 605C1153.34 607.662 1154.36 609.195 1155 612C1156.61 609.637 1157.72 608.698 1160.5 608.5L1156 604L1160.5 604.5Z" fill="url(#paint22_linear_6_360)"/>
<path d="M1085.5 620C1073.72 624.724 1070.4 628.957 1065.5 637L1091.5 649L1142.5 630C1142.1 625.268 1139.06 622.811 1125.5 619C1112.62 615.138 1105.63 613.688 1095.5 618C1092.57 620.046 1090.4 620.523 1085.5 620Z" fill="url(#paint23_linear_6_360)"/>
<path d="M1083.5 623C1081.31 623.015 1077.5 625.629 1068 633C1072.66 628.401 1075.56 625.873 1081.5 621.5C1084.27 620.801 1084.66 621.168 1083.5 623Z" fill="#0C0C0C" stroke="#0C0C0C"/>
<path d="M1087 622C1088.27 620.859 1089.63 620.607 1093.5 621C1096.14 619.844 1097.41 620.139 1099.5 621.5L1096 622V624L1105 625C1101.12 626.053 1099.59 626.677 1101 628C1102.58 627.346 1103.97 628.027 1103.5 628.5C1102.42 629.592 1105.72 631.043 1105.5 633.5C1101.53 630.294 1099.35 629.97 1095.5 631.5C1095.42 630.196 1096.24 629.253 1098 627.5C1095.66 626.014 1094.31 625.425 1091.5 627.5C1089.83 629.42 1089.78 630.189 1091.5 631L1094 635C1091.8 633.148 1090.3 632.568 1086.5 633.5C1087.46 632.528 1087.57 631.982 1086 631C1087.66 630.219 1087.81 626.195 1089 626C1087.02 624.913 1086.79 623.958 1087 622Z" fill="url(#paint24_linear_6_360)"/>
<path d="M1105 618C1116.44 616.898 1122.42 617.929 1132.5 622C1125.28 621.258 1121.22 620.676 1114 622C1113.13 619.961 1110.86 619.138 1105 618Z" fill="#101010" stroke="#101010"/>
<g filter="url(#filter0_bif_6_360)">
<path d="M1040 572.5L921.5 578L902.5 575.5L884 643L955 705L1071 659L1040 572.5Z" fill="url(#paint25_linear_6_360)"/>
</g>
<g filter="url(#filter1_bif_6_360)">
<path d="M1120 552.5L1001.5 558L982.5 555.5L964 623L1035 685L1151 639L1120 552.5Z" fill="url(#paint26_linear_6_360)"/>
</g>
<path fill-rule="evenodd" clip-rule="evenodd" d="M627.5 433.5C637.002 391.944 638.644 371.641 633.5 342L641.5 298C651.247 291.223 655.258 284.631 657 262.5C665.145 265.999 660.369 280.39 644 316.5C672.617 277.721 677.333 260.852 651.5 245.5V239.5C690.787 242.021 681.11 266.746 648 322.5C694.287 267.337 699.248 235.747 653 229.5L658 220C699.022 229.707 695.58 255.085 672 313.5C690.584 292.023 696.638 277.948 699.5 248.5C699.058 247.684 698.627 246.883 698.204 246.099C689.285 229.555 684.056 219.854 660.5 208.5L664 196L660.5 125L664 91L698.029 134.387C701.691 134.468 702.858 136.465 703.479 141.336L704 142C698.487 154.92 695.103 160.275 688 163C684.609 161.572 684.509 158.048 685.5 150C680.347 158.565 680.361 163.012 684 170.5C696.85 170.292 702.434 165.636 710.5 152C717.91 175.846 717.096 193.105 715.5 224C723.068 184.269 725.949 163.228 728 128.5L715.5 42.5L704 9.00003C688.622 22.4541 679.702 29.3166 658.5 29.5C655.363 27.1688 655.507 24.0511 655.834 16.97C656.019 12.9506 656.263 7.6543 656 0.500031C652.925 19.6962 650.473 28.4637 643.5 37C643.593 23.6712 640.394 17.454 634.908 6.7928C634.773 6.53127 634.637 6.26707 634.5 6.00003C637.756 24.3351 639.435 34.5194 634.5 47.5C628.617 38.8789 627.931 27.3389 627 6.00003C624.403 24.7304 622.928 35.1757 616.5 42.5C609.863 33.2414 604.511 31.0672 595.497 27.4052C595.169 27.2722 594.837 27.1373 594.5 27C595.475 27.9376 596.405 28.8194 597.293 29.6615C603.214 35.2758 607.278 39.1293 610.5 46V52C601.627 43.9475 596.458 42.8478 588.835 41.226C587.776 41.0007 586.67 40.7654 585.5 40.5C585.864 40.6981 586.224 40.8938 586.581 41.0875C600.432 48.6151 608.524 53.0129 610.5 69.5C591.925 41.6182 571.363 39.8665 534.5 37L534.737 37.0558C574.133 46.327 596.294 51.5423 598.5 74.5C570.375 50.426 552.491 53.3266 519.5 67C554.522 60.4224 573.249 57.7109 580 81.5C549.23 65.7118 535.039 68.4181 515 93.5C540.097 79.8385 554.034 72.3686 554.5 93.5C534.46 86.9123 518.08 92.2375 487 105C505.341 156.91 522.282 189.627 545.44 234.351C550.767 244.639 556.422 255.562 562.5 267.5C555.485 281.54 559.055 291.54 564.806 307.647C565.195 308.735 565.594 309.852 566 311C567.673 279.592 570.496 262.936 582 236.5L588 220L591 247.5C578.08 266.281 575.564 278.695 576.5 303C581.969 287.201 585.387 278.551 595.5 265.5L598.5 305C600.338 321.431 602.795 330.042 610.5 344C612.058 349.329 613.354 351.765 616.5 355C620.649 385.115 620.637 402.266 615 433.5H627.5ZM706.5 68.5C703.121 67.0898 700.839 67.0801 696 68.5C696.855 72.1237 697.53 73.7386 699 76C702.899 76.4845 704.759 76.3943 706.5 74.5C707.807 72.0254 707.627 70.7295 706.5 68.5ZM703.5 84C704.432 80.155 705.845 79.1468 710 79.5C713.693 79.3218 714.155 80.8305 714.5 84C713.171 86.3023 711.484 87.1058 706.5 87.5C705.345 87.2563 704.694 86.7934 703.5 84ZM710 95.5C705.124 94.7417 704.45 95.8455 703.5 98L706.5 101C709.745 102.469 710.982 102.078 713 101C713.878 98.3482 713.966 96.9606 710 95.5ZM632 180C627.068 192.643 627.031 195.885 628.5 199.5C633.358 196.856 635.432 195.171 637 191.5C638.296 188.222 637.772 185.917 632 180ZM588.5 205C587.195 197.578 587.202 193.418 591.5 186C594.664 190.172 595.922 192.979 596.5 199.5C597.078 204.262 596.527 207.11 594 212.5L588.5 205ZM632 250.5C641.511 232.292 645.756 222.229 648 205C645.115 203.822 643.484 203.784 640.5 207C633.313 225.221 632.547 234.396 632 250.5ZM615.5 270C604.914 298.504 604.006 314.117 615.5 341C621.395 321.668 621.529 306.299 615.5 270ZM582.5 229C570.31 207.996 573.898 193.68 585 167C581.656 191.236 581.888 203.315 587 221.5L582.5 229ZM598 218.5C596.09 221.722 595.866 223.466 596.5 226.5C598.845 227.761 600.031 227.893 602 227.5C603.26 225.413 603.67 224.318 604 222.5C602.483 219.389 601.244 218.377 598 218.5Z" fill="#040400"/>
<path d="M667.5 474C639.445 428.449 618.184 413.123 569 406.5L575 443.5L640 481.5L675 485L667.5 474Z" fill="url(#paint27_linear_6_360)" stroke="#181A1E" stroke-linejoin="round"/>
<path d="M651 469C637.367 455.823 630.187 448.317 621 434C628.296 436.039 633.026 439.177 642.5 448C647.811 456.983 648.878 461.269 651 469Z" fill="#050505"/>
<path d="M1683 507L1315 591C1315.52 569.57 1315.8 557.829 1316 548.5C1311.47 548.212 1310.35 546.329 1310 541C1312.91 535.462 1312.16 531.67 1314.5 521.5C1327.96 513.841 1332.77 508.209 1341 498C1342.96 494.226 1353.85 479.703 1356 481C1358.15 482.298 1408 504 1446 487.58C1462 498 1470.78 502.367 1490.5 491.58L1683 507Z" fill="#080804"/>
<path d="M1268.5 556.5C1287.82 573.694 1289.5 576.076 1318 559.5L1360 602.5L1326.5 617.5C1303.4 603.414 1288.18 596.864 1257 587.5C1263.1 576.565 1273.96 567.435 1268.5 556.5Z" fill="#101010"/>
<path d="M564.5 487L584 404.5C602.946 421.096 617.584 448.013 636.117 477.305C642.778 476.125 649.143 477.09 660.613 480.858C666.18 469.265 673.029 474.679 685.5 500.5L713.5 564.5L672 607.5L634 577.5L564.5 487Z" fill="#080808"/>
<path d="M509 402.5C524.161 417.628 544.491 413.425 583 400C599.272 431.914 609.566 449.651 615 483C639.081 517.035 638.857 533.985 643.5 565C706.01 568.957 723.563 586.101 737.5 631.5C762.741 631.215 781.514 635.762 821.5 650.5C880 623.83 909.307 627.078 954 672.5C972.998 650.92 996.38 640.243 1016.5 639.5C1020.07 636.986 1028.75 636.202 1057 636C1067.66 633.542 1073.81 632.737 1085 632C1099.37 630.986 1107.23 629.748 1121 626.5C1127.08 623.798 1130.61 622.938 1137 622C1142.66 621.273 1145.84 621.254 1151.5 622C1156.43 617.009 1159.39 614.798 1165.5 613.5C1171.62 612.731 1174.5 613 1180 615.5C1187.53 617.109 1193.5 622 1194 623C1194.5 624 1215.21 625.599 1218.5 637C1252.53 629.226 1268.95 624.194 1244 601.5C1241.6 590.676 1243.4 585.655 1255 579.5C1262.4 580.148 1266.43 573.423 1280 593C1287.5 596.247 1287.37 598.45 1293.5 594C1296.74 587.347 1299.3 584.918 1305 582.5C1313.65 559.681 1334.4 559.293 1382.5 567.25L1680 502.5C1715.58 477.972 1742.01 471.648 1798 470.5C1854.38 448.661 1882.16 446.082 1920 454V867H0V209.5C83.4333 183.875 138.802 190.927 250 234.5C363.231 238.293 404.265 262.607 477.399 305.94L477.5 306L509 402.5Z" fill="#040404"/>
<path d="M970.5 489.5L967 498.5L966 487H974L973.5 498.5L970.5 489.5Z" fill="#000404" stroke="#000404" stroke-linejoin="round"/>
<path d="M962.5 494C961.164 490.528 962.071 485.188 964.5 474H976.5C972.11 485.715 969.373 491.279 962.5 494Z" fill="#26292E" stroke="#383A40"/>
<path d="M965.5 488.5C966.654 486.377 967.231 485.021 968 482L970.5 484L965.5 488.5Z" fill="#181A1E" stroke="#181A1E" stroke-linejoin="round"/>
<path d="M976 473H970H964.5V480C971.142 488.234 974.956 491.777 982 495C979.6 490.256 978.295 484.83 976 473Z" fill="#26292E" stroke="#383A40"/>
<path d="M979.839 440.684C979.257 440.505 978.763 441.137 979.075 441.658L980.074 443.323L978.185 444.582L978.576 444.866C981.972 447.336 981.03 452.285 977.976 455.168C977.976 455.168 974.309 454.027 970 454.027C965.691 454.027 963.874 454.641 962.023 455.169L962.023 455.168L961.059 454.204C958.171 451.315 958.511 446.985 961.815 444.582L959.926 443.323L960.925 441.658C961.238 441.137 960.743 440.505 960.162 440.684C956.279 441.878 953.63 445.466 953.63 449.527V449.975C953.63 453.243 955.896 457.332 958.667 459.064V467.249C958.667 471.77 962.331 475.434 966.852 475.434H973.148C977.669 475.434 981.333 471.77 981.333 467.249V459.064C984.104 457.332 986.37 453.243 986.37 449.976V449.528C986.37 445.466 983.721 441.878 979.839 440.684Z" fill="#E3E8F6"/>
<path d="M964.333 470.397C966.072 470.397 967.481 468.706 967.481 466.619C967.481 464.533 966.072 462.842 964.333 462.842C962.595 462.842 961.185 464.533 961.185 466.619C961.185 468.706 962.595 470.397 964.333 470.397Z" fill="black"/>
<path d="M975.667 470.397C977.405 470.397 978.815 468.706 978.815 466.619C978.815 464.533 977.405 462.842 975.667 462.842C973.928 462.842 972.519 464.533 972.519 466.619C972.519 468.706 973.928 470.397 975.667 470.397Z" fill="black"/>
<path d="M973.148 476.064H966.852C961.991 476.064 958.037 472.11 958.037 467.249V459.403C955.233 457.469 953 453.327 953 449.975V449.527C953 445.161 955.804 441.366 959.977 440.082L960.061 440.056C960.562 439.904 961.097 440.07 961.421 440.484C961.746 440.898 961.78 441.457 961.509 441.908L960.775 443.132L961.44 443.576C961.777 443.8 961.98 444.162 961.999 444.566C962.018 444.971 961.848 445.349 961.533 445.603C961.383 445.724 961.244 445.838 961.18 445.904C960.26 446.839 959.787 448.094 959.814 449.535C959.847 451.332 960.654 453.191 961.991 454.575C963.074 454.258 966.363 453.397 970 453.397C973.554 453.397 976.908 454.303 978.009 454.632C979.344 453.247 980.151 451.378 980.186 449.564C980.213 448.108 979.74 446.842 978.82 445.904C978.755 445.838 978.617 445.725 978.467 445.603C978.152 445.348 977.982 444.971 978.001 444.566C978.019 444.162 978.223 443.801 978.56 443.577L979.226 443.133L978.491 441.908C978.22 441.457 978.255 440.898 978.579 440.484C978.904 440.07 979.437 439.902 979.941 440.056L980.022 440.081C980.023 440.082 980.024 440.082 980.024 440.082C984.196 441.366 987 445.161 987 449.527V449.975C987 453.326 984.767 457.469 981.963 459.403V467.249C981.963 472.11 978.009 476.064 973.148 476.064ZM960.43 441.26L960.345 441.286C956.706 442.406 954.259 445.718 954.259 449.527V449.975C954.259 453.005 956.43 456.923 959 458.53C959.184 458.645 959.296 458.846 959.296 459.064V467.249C959.296 471.415 962.686 474.804 966.852 474.804H973.148C977.314 474.804 980.704 471.415 980.704 467.249V459.064C980.704 458.846 980.816 458.645 981 458.53C983.57 456.924 985.741 453.006 985.741 449.975V449.527C985.741 445.717 983.295 442.406 979.654 441.285L979.572 441.26L980.614 442.999C980.787 443.287 980.704 443.66 980.424 443.847L979.258 444.624C979.456 444.782 979.635 444.936 979.719 445.022C980.882 446.206 981.479 447.785 981.445 449.587C981.403 451.846 980.345 454.17 978.616 455.803C978.446 455.963 978.205 456.016 977.986 455.943C977.947 455.93 974.04 454.656 970 454.656C965.847 454.656 962.047 455.873 962.009 455.885C961.79 455.957 961.55 455.902 961.383 455.744C959.653 454.11 958.596 451.797 958.555 449.558C958.522 447.771 959.119 446.202 960.282 445.021C960.365 444.936 960.544 444.782 960.741 444.623L959.576 443.847C959.297 443.66 959.213 443.287 959.386 442.999L960.43 441.26Z" fill="#7C7A77"/>
<defs>
<filter id="filter0_bif_6_360" x="860" y="548.5" width="235" height="180.5" filterUnits="userSpaceOnUse" color-interpolation-filters="sRGB">
<feFlood flood-opacity="0" result="BackgroundImageFix"/>
<feGaussianBlur in="BackgroundImage" stdDeviation="2"/>
<feComposite in2="SourceAlpha" operator="in" result="effect1_backgroundBlur_6_360"/>
<feBlend mode="normal" in="SourceGraphic" in2="effect1_backgroundBlur_6_360" result="shape"/>
<feColorMatrix in="SourceAlpha" type="matrix" values="0 0 0 0 0 0 0 0 0 0 0 0 0 0 0 0 0 0 127 0" result="hardAlpha"/>
<feOffset dy="4"/>
<feGaussianBlur stdDeviation="47"/>
<feComposite in2="hardAlpha" operator="arithmetic" k2="-1" k3="1"/>
<feColorMatrix type="matrix" values="0 0 0 0 0 0 0 0 0 0 0 0 0 0 0 0 0 0 0.55 0"/>
<feBlend mode="normal" in2="shape" result="effect2_innerShadow_6_360"/>
<feGaussianBlur stdDeviation="12" result="effect3_foregroundBlur_6_360"/>
</filter>
<filter id="filter1_bif_6_360" x="900" y="488.5" width="315" height="260.5" filterUnits="userSpaceOnUse" color-interpolation-filters="sRGB">
<feFlood flood-opacity="0" result="BackgroundImageFix"/>
<feGaussianBlur in="BackgroundImage" stdDeviation="32"/>
<feComposite in2="SourceAlpha" operator="in" result="effect1_backgroundBlur_6_360"/>
<feBlend mode="normal" in="SourceGraphic" in2="effect1_backgroundBlur_6_360" result="shape"/>
<feColorMatrix in="SourceAlpha" type="matrix" values="0 0 0 0 0 0 0 0 0 0 0 0 0 0 0 0 0 0 127 0" result="hardAlpha"/>
<feOffset dy="4"/>
<feGaussianBlur stdDeviation="47"/>
<feComposite in2="hardAlpha" operator="arithmetic" k2="-1" k3="1"/>
<feColorMatrix type="matrix" values="0 0 0 0 0 0 0 0 0 0 0 0 0 0 0 0 0 0 0.5 0"/>
<feBlend mode="normal" in2="shape" result="effect2_innerShadow_6_360"/>
<feGaussianBlur stdDeviation="27" result="effect3_foregroundBlur_6_360"/>
</filter>
<linearGradient id="paint0_linear_6_360" x1="693.237" y1="559" x2="804.237" y2="610.5" gradientUnits="userSpaceOnUse">
<stop stop-color="#353533"/>
<stop offset="1" stop-color="#161615"/>
</linearGradient>
<linearGradient id="paint1_linear_6_360" x1="739.737" y1="538.5" x2="711.737" y2="601" gradientUnits="userSpaceOnUse">
<stop stop-color="#1C1C1B"/>
<stop offset="0.441197" stop-color="#212020"/>
<stop offset="1" stop-color="#101010"/>
</linearGradient>
<linearGradient id="paint2_linear_6_360" x1="825.5" y1="592" x2="936.5" y2="643.5" gradientUnits="userSpaceOnUse">
<stop stop-color="#353533"/>
<stop offset="1" stop-color="#161615"/>
</linearGradient>
<linearGradient id="paint3_linear_6_360" x1="872" y1="571.5" x2="844" y2="634" gradientUnits="userSpaceOnUse">
<stop stop-color="#1C1C1B"/>
<stop offset="0.441197" stop-color="#212020"/>
<stop offset="1" stop-color="#101010"/>
</linearGradient>
<linearGradient id="paint4_linear_6_360" x1="980" y1="497.461" x2="980" y2="650" gradientUnits="userSpaceOnUse">
<stop stop-color="#4F4E4B"/>
<stop offset="1" stop-color="#161615"/>
</linearGradient>
<linearGradient id="paint5_linear_6_360" x1="972" y1="497" x2="966.5" y2="612" gradientUnits="userSpaceOnUse">
<stop stop-color="#0C0C0C"/>
<stop offset="1" stop-color="#1C1C1B"/>
</linearGradient>
<linearGradient id="paint6_linear_6_360" x1="966" y1="503" x2="950" y2="572" gradientUnits="userSpaceOnUse">
<stop stop-color="#5D5D5D"/>
<stop offset="1" stop-color="#262624"/>
</linearGradient>
<linearGradient id="paint7_linear_6_360" x1="966" y1="503" x2="950" y2="572" gradientUnits="userSpaceOnUse">
<stop stop-color="#5D5D5D"/>
<stop offset="1" stop-color="#262624"/>
</linearGradient>
<linearGradient id="paint8_linear_6_360" x1="966" y1="503" x2="950" y2="572" gradientUnits="userSpaceOnUse">
<stop stop-color="#5D5D5D"/>
<stop offset="1" stop-color="#262624"/>
</linearGradient>
<linearGradient id="paint9_linear_6_360" x1="966" y1="503" x2="950" y2="572" gradientUnits="userSpaceOnUse">
<stop stop-color="#5D5D5D"/>
<stop offset="1" stop-color="#262624"/>
</linearGradient>
<linearGradient id="paint10_linear_6_360" x1="966" y1="503" x2="950" y2="572" gradientUnits="userSpaceOnUse">
<stop stop-color="#5D5D5D"/>
<stop offset="1" stop-color="#262624"/>
</linearGradient>
<linearGradient id="paint11_linear_6_360" x1="966" y1="503" x2="950" y2="572" gradientUnits="userSpaceOnUse">
<stop stop-color="#5D5D5D"/>
<stop offset="1" stop-color="#262624"/>
</linearGradient>
<linearGradient id="paint12_linear_6_360" x1="966" y1="503" x2="950" y2="572" gradientUnits="userSpaceOnUse">
<stop stop-color="#5D5D5D"/>
<stop offset="1" stop-color="#262624"/>
</linearGradient>
<linearGradient id="paint13_linear_6_360" x1="966" y1="503" x2="950" y2="572" gradientUnits="userSpaceOnUse">
<stop stop-color="#5D5D5D"/>
<stop offset="1" stop-color="#262624"/>
</linearGradient>
<linearGradient id="paint14_linear_6_360" x1="1011" y1="497.5" x2="1011" y2="592" gradientUnits="userSpaceOnUse">
<stop stop-color="#0C0C0C"/>
<stop offset="1" stop-color="#1E1E1D"/>
</linearGradient>
<linearGradient id="paint15_linear_6_360" x1="776.5" y1="597.5" x2="741.5" y2="660.5" gradientUnits="userSpaceOnUse">
<stop stop-color="#262624"/>
<stop offset="1"/>
</linearGradient>
<linearGradient id="paint16_linear_6_360" x1="1168.24" y1="558" x2="1279.24" y2="609.5" gradientUnits="userSpaceOnUse">
<stop stop-color="#353533"/>
<stop offset="1" stop-color="#161615"/>
</linearGradient>
<linearGradient id="paint17_linear_6_360" x1="1214.74" y1="537.5" x2="1186.74" y2="600" gradientUnits="userSpaceOnUse">
<stop stop-color="#1C1C1B"/>
<stop offset="0.441197" stop-color="#212020"/>
<stop offset="1" stop-color="#101010"/>
</linearGradient>
<linearGradient id="paint18_linear_6_360" x1="1161.9" y1="590.168" x2="1163.09" y2="662.227" gradientUnits="userSpaceOnUse">
<stop stop-color="#262624"/>
<stop offset="1"/>
</linearGradient>
<linearGradient id="paint19_linear_6_360" x1="1180" y1="603" x2="1232" y2="636" gradientUnits="userSpaceOnUse">
<stop stop-color="#1C1C1B"/>
<stop offset="1" stop-color="#040404"/>
</linearGradient>
<linearGradient id="paint20_linear_6_360" x1="1172" y1="589.5" x2="1243" y2="632.5" gradientUnits="userSpaceOnUse">
<stop stop-color="#1C1C1B"/>
<stop offset="1" stop-color="#040404"/>
</linearGradient>
<linearGradient id="paint21_linear_6_360" x1="1147.5" y1="595.5" x2="1171.5" y2="589" gradientUnits="userSpaceOnUse">
<stop stop-color="#2A2929"/>
<stop offset="1" stop-color="#10100C"/>
</linearGradient>
<linearGradient id="paint22_linear_6_360" x1="1124" y1="619" x2="1178.5" y2="605" gradientUnits="userSpaceOnUse">
<stop stop-color="#1F1B1B"/>
<stop offset="0.484375" stop-color="#292828"/>
<stop offset="1" stop-color="#1C1C1B"/>
</linearGradient>
<linearGradient id="paint23_linear_6_360" x1="1067.5" y1="640.5" x2="1128.5" y2="623" gradientUnits="userSpaceOnUse">
<stop stop-color="#181716"/>
<stop offset="0.505208" stop-color="#1E1A1A"/>
<stop offset="1" stop-color="#252423"/>
</linearGradient>
<linearGradient id="paint24_linear_6_360" x1="1083" y1="632.5" x2="1110.5" y2="621.5" gradientUnits="userSpaceOnUse">
<stop stop-color="#080804"/>
<stop offset="1" stop-color="#161615"/>
</linearGradient>
<linearGradient id="paint25_linear_6_360" x1="884" y1="642.5" x2="1053" y2="609.5" gradientUnits="userSpaceOnUse">
<stop stop-color="#383838"/>
<stop offset="1" stop-color="#2D2B29"/>
</linearGradient>
<linearGradient id="paint26_linear_6_360" x1="964" y1="622.5" x2="1133" y2="589.5" gradientUnits="userSpaceOnUse">
<stop stop-color="#383838"/>
<stop offset="1" stop-color="#2D2B29"/>
</linearGradient>
<linearGradient id="paint27_linear_6_360" x1="654.5" y1="458.5" x2="600" y2="427.5" gradientUnits="userSpaceOnUse">
<stop stop-color="#262624"/>
<stop offset="1" stop-color="#0C0C0C"/>
</linearGradient>
</defs>
</svg>
