<svg width="144" height="144" viewBox="0 0 144 144" fill="none" xmlns="http://www.w3.org/2000/svg">
<path d="M107.158 13.068C105.082 12.429 103.313 14.688 104.432 16.551L108 22.5L101.25 27L102.645 28.0147C114.781 36.8415 111.415 54.5242 100.503 64.827C100.503 64.827 87.399 60.75 72 60.75C56.601 60.75 50.1097 62.9437 43.4925 64.8315L43.4947 64.827L40.05 61.3822C29.727 51.0592 30.942 35.586 42.75 27L36 22.5L39.5707 16.551C40.689 14.688 38.9182 12.429 36.8438 13.068C22.968 17.3362 13.5 30.1567 13.5 44.6715V46.2712C13.5 57.9487 21.6 72.5625 31.5 78.75V108C31.5 124.155 44.595 137.25 60.75 137.25H83.25C99.405 137.25 112.5 124.155 112.5 108V78.75C122.4 72.5625 130.5 57.9487 130.5 46.2735V44.6737C130.5 30.1567 121.032 17.3362 107.158 13.068Z" fill="#E3E8F6"/>
<path d="M101.088 67.6575C100.377 70.7625 97.8075 72.8325 94.986 72.8325C94.5045 72.8325 94.005 72.765 93.5033 72.63C89.388 71.55 81.1125 69.75 72 69.75C60.84 69.75 55.1565 71.1675 50.6858 72.5175C47.3626 73.5075 43.8953 71.415 42.9751 67.815C42.6623 66.5775 42.6825 65.3175 42.9953 64.1475C43.7693 65.1825 57.708 60.75 72 60.75C79.146 60.75 85.77 61.7625 90.5985 62.775C95.4248 63.81 100.211 65.205 101.005 64.17C101.32 65.2725 101.36 66.465 101.088 67.6575Z" fill="#D0D8EC"/>
<path d="M51.75 119.25C57.9632 119.25 63 113.206 63 105.75C63 98.2942 57.9632 92.25 51.75 92.25C45.5368 92.25 40.5 98.2942 40.5 105.75C40.5 113.206 45.5368 119.25 51.75 119.25Z" fill="#26292E"/>
<path d="M92.25 119.25C98.4632 119.25 103.5 113.206 103.5 105.75C103.5 98.2942 98.4632 92.25 92.25 92.25C86.0368 92.25 81 98.2942 81 105.75C81 113.206 86.0368 119.25 92.25 119.25Z" fill="#26292E"/>
<path d="M94.3852 53.298C94.2682 53.298 94.1512 53.289 94.0342 53.271C92.8057 53.0775 91.9664 51.9255 92.1599 50.697L92.8575 46.2487C93.0487 45.0202 94.2119 44.1945 95.4292 44.3745C96.6577 44.568 97.4969 45.72 97.3034 46.9485L96.606 51.3967C96.4305 52.5082 95.4742 53.298 94.3852 53.298Z" fill="#26292E"/>
<path d="M83.2274 52.0763C83.1779 52.0763 83.1262 52.0741 83.0767 52.0718C81.8369 51.9886 80.8987 50.9153 80.9819 49.6778L81.2812 45.1868C81.3644 43.9471 82.4489 43.0358 83.6752 43.0898C84.9149 43.1731 85.8532 44.2463 85.7699 45.4838L85.4707 49.9748C85.3919 51.1628 84.4019 52.0763 83.2274 52.0763Z" fill="#26292E"/>
<path d="M71.973 51.759C70.74 51.759 69.7343 50.7645 69.723 49.5293L69.6848 45.0293C69.6735 43.785 70.6725 42.7703 71.9145 42.759C71.9213 42.759 71.928 42.759 71.9348 42.759C73.1678 42.759 74.1735 43.7535 74.1848 44.9888L74.223 49.4888C74.2343 50.733 73.2353 51.7478 71.991 51.759C71.9865 51.759 71.9798 51.759 71.973 51.759Z" fill="#26292E"/>
<path d="M60.732 52.2765C59.5755 52.2765 58.5945 51.3923 58.4933 50.22L58.1063 45.738C57.9983 44.5005 58.9163 43.4093 60.1538 43.3035C61.3913 43.1708 62.4803 44.1113 62.5883 45.351L62.9753 49.833C63.0833 51.0705 62.1653 52.1618 60.9278 52.2675C60.8625 52.2743 60.7973 52.2765 60.732 52.2765Z" fill="#26292E"/>
<path d="M49.617 53.7434C48.5505 53.7434 47.6032 52.983 47.4052 51.8962L46.5997 47.4682C46.377 46.2464 47.187 45.0764 48.411 44.8537C49.6462 44.6174 50.805 45.4409 51.0277 46.6649L51.8332 51.0929C52.056 52.3147 51.246 53.4847 50.022 53.7075C49.8847 53.7322 49.7497 53.7434 49.617 53.7434Z" fill="#26292E"/>
<path d="M83.25 139.5H60.75C43.38 139.5 29.25 125.37 29.25 108V79.9628C19.2307 73.053 11.25 58.248 11.25 46.2713V44.6715C11.25 29.07 21.2692 15.507 36.1822 10.917L36.4838 10.8248C38.2748 10.2825 40.185 10.8765 41.3438 12.3548C42.5025 13.833 42.6262 15.831 41.6587 17.4443L39.033 21.8183L41.4113 23.4045C42.615 24.2055 43.3417 25.497 43.4092 26.9415C43.4745 28.3905 42.867 29.7405 41.742 30.6495C41.2065 31.0815 40.7115 31.4865 40.482 31.7228C37.1925 35.064 35.505 39.5505 35.5995 44.6985C35.7165 51.12 38.6033 57.762 43.38 62.7098C47.25 61.578 59.0018 58.5 72 58.5C84.699 58.5 96.687 61.7378 100.62 62.9145C105.39 57.9623 108.274 51.2843 108.398 44.802C108.495 39.5978 106.807 35.0753 103.518 31.7228C103.286 31.4888 102.794 31.0838 102.258 30.6495C101.131 29.7383 100.523 28.3883 100.591 26.9415C100.656 25.497 101.385 24.2078 102.589 23.4068L104.969 21.8205L102.344 17.4443C101.376 15.831 101.5 13.8353 102.658 12.3548C103.817 10.8765 105.723 10.2758 107.525 10.827L107.815 10.9148C107.818 10.917 107.82 10.917 107.82 10.917C122.731 15.507 132.75 29.07 132.75 44.6715V46.2713C132.75 58.2458 124.769 73.0508 114.75 79.9628V108C114.75 125.37 100.62 139.5 83.25 139.5ZM37.8 15.1268L37.4985 15.2213C24.4935 19.2218 15.75 31.059 15.75 44.6715V46.2713C15.75 57.1005 23.508 71.1 32.6925 76.842C33.3495 77.2538 33.75 77.9738 33.75 78.75V108C33.75 122.888 45.8617 135 60.75 135H83.25C98.1383 135 110.25 122.888 110.25 108V78.75C110.25 77.9738 110.651 77.2538 111.308 76.842C120.492 71.1023 128.25 57.1028 128.25 46.2713V44.6715C128.25 31.0568 119.509 19.2218 106.499 15.2168L106.207 15.129L109.931 21.3413C110.549 22.3718 110.25 23.706 109.249 24.372L105.084 27.1485C105.79 27.7155 106.43 28.2645 106.731 28.5705C110.887 32.8028 113.02 38.4458 112.898 44.8853C112.747 52.9583 108.967 61.263 102.789 67.0973C102.184 67.6688 101.32 67.8578 100.539 67.599C100.397 67.5518 86.4382 63 72 63C57.159 63 43.5803 67.347 43.4453 67.3898C42.6623 67.6485 41.805 67.4505 41.2065 66.8858C35.0235 61.047 31.2457 52.7828 31.0995 44.7795C30.9825 38.394 33.1155 32.787 37.2713 28.5683C37.5683 28.2645 38.2095 27.7155 38.9138 27.1463L34.7512 24.372C33.7522 23.706 33.4508 22.3718 34.0695 21.3413L37.8 15.1268Z" fill="#7C7A77"/>
</svg>
