<svg width="144" height="144" viewBox="0 0 144 144" fill="none" xmlns="http://www.w3.org/2000/svg">
<path d="M71.571 30C52.737 30 35.043 31.407 25.623 33.375C19.344 34.782 13.923 39 12.78 45.468C11.643 52.218 10.5 60.843 10.5 73.5C10.5 86.157 11.643 94.5 13.068 101.532C14.211 107.721 19.632 112.221 25.911 113.625C35.898 115.593 53.022 117 71.856 117C90.69 117 107.814 115.593 117.804 113.625C124.083 112.218 129.504 108 130.647 101.532C131.79 94.5 133.215 85.875 133.5 73.218C133.5 60.561 132.072 51.936 130.647 44.904C129.504 38.715 124.083 34.215 117.804 32.811C107.817 31.407 90.408 30 71.571 30Z" stroke="#D9D9D9" stroke-width="9" stroke-miterlimit="10" stroke-linejoin="round"/>
<path d="M71.571 30C52.737 30 35.043 31.407 25.623 33.375C19.344 34.782 13.923 39 12.78 45.468C11.643 52.218 10.5 60.843 10.5 73.5C10.5 86.157 11.643 94.5 13.068 101.532C14.211 107.721 19.632 112.221 25.911 113.625C35.898 115.593 53.022 117 71.856 117C90.69 117 107.814 115.593 117.804 113.625C124.083 112.218 129.504 108 130.647 101.532C131.79 94.5 133.215 85.875 133.5 73.218C133.5 60.561 132.072 51.936 130.647 44.904C129.504 38.715 124.083 34.215 117.804 32.811C107.817 31.407 90.408 30 71.571 30ZM54.114 86.586V57.417C54.114 52.5 59.487 49.416 63.807 51.855L89.619 66.441C93.972 68.901 93.972 75.105 89.619 77.565L63.807 92.151C59.49 94.587 54.114 91.503 54.114 86.586Z" fill="#D9D9D9"/>
</svg>
