<svg width="82" height="144" viewBox="0 0 82 144" fill="none" xmlns="http://www.w3.org/2000/svg">
<path d="M40.9263 144C63.5293 144 81.8526 140.381 81.8526 135.916C81.8526 131.451 63.5293 127.832 40.9263 127.832C18.3233 127.832 0 131.451 0 135.916C0 140.381 18.3233 144 40.9263 144Z" fill="#7C7A77"/>
<path d="M22.8633 129.979C41.1906 127.13 51.4069 128.067 69.6001 132.126L39.6633 103.2L22.8633 129.979Z" fill="#181A1E" stroke="#383A40"/>
<path d="M42.1301 119.168L33.7041 140.835L31.2966 113.149H50.5561L49.3524 140.835L42.1301 119.168Z" fill="#000404" stroke="#000404" stroke-linejoin="round"/>
<path d="M22.8706 130.001C19.6539 121.643 21.8372 108.788 27.6855 81.8526H56.5746C46.005 110.055 39.4161 123.45 22.8706 130.001Z" fill="#26292E" stroke="#383A40"/>
<path d="M30.0928 116.76C32.8699 111.65 34.2598 108.384 36.1113 101.112L42.1299 105.927L30.0928 116.76Z" fill="#181A1E" stroke="#181A1E" stroke-linejoin="round"/>
<path d="M55.3708 79.4451H40.9262H27.6853V96.2971C43.6759 116.119 52.8565 124.649 69.8153 132.409C64.0371 120.988 60.8963 107.926 55.3708 79.4451Z" fill="#26292E" stroke="#383A40"/>
<path d="M64.6121 1.64571C63.213 1.21523 62.0216 2.73708 62.775 3.99215L65.179 7.9999L60.6316 11.0315L61.5714 11.7151C69.7476 17.6615 67.48 29.5741 60.1284 36.5149C60.1284 36.5149 51.3005 33.7683 40.9264 33.7683C30.5523 33.7683 26.1793 35.2462 21.7213 36.518L21.7229 36.5149L19.4022 34.1943C12.4477 27.2398 13.2663 16.8157 21.2211 11.0315L16.6738 7.9999L19.0793 3.99215C19.8327 2.73708 18.6397 1.21523 17.2422 1.64571C7.89431 4.52117 1.51587 13.1581 1.51587 22.9365V24.0142C1.51587 31.8812 6.97271 41.7262 13.6422 45.8946V65.5999C13.6422 76.4833 22.4641 85.3052 33.3474 85.3052H48.5053C59.3887 85.3052 68.2106 76.4833 68.2106 65.5999V45.8946C74.8801 41.7262 80.3369 31.8812 80.3369 24.0157V22.938C80.3369 13.1581 73.9585 4.52117 64.6121 1.64571Z" fill="#E3E8F6"/>
<path d="M27.284 73.1789C31.4698 73.1789 34.863 69.1071 34.863 64.0842C34.863 59.0613 31.4698 54.9894 27.284 54.9894C23.0983 54.9894 19.7051 59.0613 19.7051 64.0842C19.7051 69.1071 23.0983 73.1789 27.284 73.1789Z" fill="black"/>
<path d="M54.5684 73.1789C58.7542 73.1789 62.1474 69.1071 62.1474 64.0842C62.1474 59.0613 58.7542 54.9894 54.5684 54.9894C50.3827 54.9894 46.9895 59.0613 46.9895 64.0842C46.9895 69.1071 50.3827 73.1789 54.5684 73.1789Z" fill="black"/>
<path d="M48.5053 86.8209H33.3474C21.6455 86.8209 12.1263 77.3017 12.1263 65.5998V46.7116C5.37651 42.0566 0 32.0827 0 24.0142V22.9364C0 12.4259 6.74981 3.28877 16.7965 0.196559L16.9996 0.134411C18.2061 -0.230894 19.4931 0.169275 20.2737 1.16515C21.0543 2.16102 21.1377 3.50704 20.4859 4.59386L18.717 7.54056L20.3192 8.60919C21.1301 9.14881 21.6197 10.0189 21.6652 10.992C21.7091 11.9682 21.2999 12.8777 20.542 13.49C20.1812 13.7811 19.8477 14.0539 19.6931 14.2131C17.4771 16.464 16.3402 19.4865 16.4039 22.9546C16.4827 27.2807 18.4275 31.7553 21.6455 35.0885C24.2526 34.3261 32.1696 32.2525 40.9263 32.2525C49.4814 32.2525 57.5576 34.4337 60.2072 35.2265C63.4206 31.8902 65.3639 27.3913 65.4472 23.0243C65.5124 19.5183 64.3756 16.4716 62.1595 14.2131C62.0034 14.0554 61.6714 13.7826 61.3107 13.49C60.5512 12.8761 60.142 11.9667 60.1875 10.992C60.2314 10.0189 60.7225 9.15033 61.5335 8.61071L63.1372 7.54207L61.3683 4.59386C60.7165 3.50704 60.7998 2.16254 61.5805 1.16515C62.3611 0.169275 63.645 -0.235442 64.8591 0.135927L65.0547 0.195043C65.0562 0.196558 65.0577 0.196559 65.0577 0.196559C75.1028 3.28877 81.8526 12.4259 81.8526 22.9364V24.0142C81.8526 32.0812 76.4761 42.0551 69.7263 46.7116V65.5998C69.7263 77.3017 60.2072 86.8209 48.5053 86.8209ZM17.8863 3.0326L17.6832 3.09626C8.92194 5.79134 3.03158 13.7659 3.03158 22.9364V24.0142C3.03158 31.3097 8.25802 40.7409 14.4455 44.6092C14.8881 44.8866 15.1579 45.3716 15.1579 45.8946V65.5998C15.1579 75.6298 23.3174 83.7893 33.3474 83.7893H48.5053C58.5352 83.7893 66.6947 75.6298 66.6947 65.5998V45.8946C66.6947 45.3716 66.9646 44.8866 67.4072 44.6092C73.5946 40.7424 78.8211 31.3112 78.8211 24.0142V22.9364C78.8211 13.7644 72.9322 5.79134 64.1679 3.09323L63.9709 3.03412L66.4795 7.21921C66.8963 7.91344 66.6947 8.81231 66.0202 9.26098L63.2145 11.1315C63.6904 11.5134 64.1209 11.8833 64.324 12.0894C67.1237 14.9406 68.5607 18.7422 68.4788 23.0804C68.3773 28.5191 65.8307 34.1139 61.6684 38.0443C61.2606 38.4293 60.6786 38.5566 60.1526 38.3823C60.0571 38.3505 50.6531 35.2841 40.9263 35.2841C30.9282 35.2841 21.7804 38.2126 21.6894 38.2414C21.1619 38.4157 20.5844 38.2823 20.1812 37.9018C16.0158 33.9683 13.4708 28.4009 13.3723 23.0092C13.2935 18.7074 14.7304 14.93 17.5301 12.0879C17.7302 11.8833 18.1622 11.5134 18.6366 11.1299L15.8324 9.26098C15.1594 8.81231 14.9563 7.91344 15.3731 7.21921L17.8863 3.0326Z" fill="#7C7A77"/>
</svg>
