<svg width="64" height="144" viewBox="0 0 64 144" fill="none" xmlns="http://www.w3.org/2000/svg">
<path fill-rule="evenodd" clip-rule="evenodd" d="M47.8257 33.4361C48.7724 26.8808 49.7476 20.1276 47.4808 12.6797C47.2556 2.62399 45.4227 -0.0401432 39.3299 0.000455074C32.8791 1.50382 30.2733 8.15136 32.0846 10.8683C34.1456 12.2423 34.7579 11.5095 36.4275 9.51138C36.959 8.87533 37.5976 8.11105 38.4242 7.2457C42.4503 6.71959 42.9784 8.45062 42.9525 12.6797C38.6552 29.8256 35.3059 38.7829 24.8394 51.6229C22.4154 51.382 22.1474 51.0263 21.58 50.2735C21.3113 49.9168 20.9753 49.471 20.3111 48.9059C18.1867 47.1906 16.9969 47.1665 14.8771 48.9059C12.1434 57.0118 8.88875 61.5779 2.19795 69.7361C0.701902 71.6779 0.50255 72.6948 2.19795 74.2639C8.88874 82.4221 12.1434 86.9882 14.8771 95.094C16.9969 96.8334 18.1867 96.8094 20.3111 95.094C20.9753 94.529 21.3113 94.0832 21.58 93.7265C22.1474 92.9737 22.4154 92.618 24.8394 92.3771C35.3059 105.217 38.6552 114.174 42.9525 131.32C42.9784 135.549 42.4503 137.28 38.4242 136.754C37.5976 135.889 36.959 135.125 36.4275 134.489C34.7579 132.491 34.1456 131.758 32.0846 133.132C30.2733 135.849 32.8791 142.496 39.3299 144C45.4227 144.04 47.2556 141.376 47.4808 131.32C49.7476 123.872 48.7724 117.119 47.8257 110.564C46.1249 98.7855 44.5163 87.6461 61.9713 74.2639C63.8256 72.3673 63.8568 71.3686 61.9713 69.7361C44.5163 56.3539 46.1249 45.2144 47.8257 33.4361ZM18.4999 65.2078L31.1791 52.5286L34.8017 56.1512L19.4055 72.453L34.8017 88.7549L31.1791 92.3775L18.4999 79.6983H16.6886C16.6886 80.604 16.6886 81.0568 16.4621 81.2832C16.2357 81.5096 15.7829 81.5096 14.8773 81.5096C5.14688 75.0077 5.19473 71.0018 14.8773 63.3965C15.7829 63.3965 16.2357 63.3965 16.4622 63.6229C16.6886 63.8493 16.6886 64.3021 16.6886 65.2078H18.4999ZM56.5374 70.6415L42.0469 54.3397C39.3981 54.5091 39.0606 55.5048 39.3299 57.9623L52.0091 72.4528L39.3299 87.849C39.5299 89.626 40.2749 90.0954 42.0469 90.566L56.5374 73.3585C57.2777 72.2397 57.3493 71.6392 56.5374 70.6415ZM42.0469 70.6415L36.613 63.3965C35.0575 62.4092 34.2818 62.5345 32.9904 63.3965L27.5565 70.6417C26.4471 72.1253 26.5062 72.9118 27.5565 74.2644L32.9904 81.5096C34.2821 82.7051 35.0587 82.8355 36.613 81.5096L42.0469 74.2644C43.245 72.7139 43.2877 71.9306 42.0469 70.6415Z" fill="url(#paint0_linear_7_591)"/>
<defs>
<linearGradient id="paint0_linear_7_591" x1="0.386567" y1="72.453" x2="63.7826" y2="72.453" gradientUnits="userSpaceOnUse">
<stop stop-color="#C7C9CA"/>
<stop offset="1" stop-color="#848689"/>
</linearGradient>
</defs>
</svg>
