<svg width="561" height="183" viewBox="0 0 561 183" fill="none" xmlns="http://www.w3.org/2000/svg">
<path d="M423.713 20.2055H418.517C410.306 19.6631 406.191 18.7371 400.044 15.5869L393.116 11.5458C384.331 9.36598 378.27 10.0823 365.983 13.855C363.779 13.8589 363.129 13.2554 363.097 10.9685C363.111 8.70782 363.779 8.11358 365.983 8.08208C367.373 8.10018 367.713 8.5228 367.715 9.81396C367.636 10.7184 367.231 10.9507 365.983 10.9685C365.879 10.7301 366.006 10.4874 366.561 9.81396C366.553 9.41012 366.456 9.25985 365.983 9.23666C365.044 9.28395 364.804 9.68096 364.829 10.9685C364.839 11.8606 365.115 12.0903 365.983 12.1231C376.542 8.44594 382.472 7.76229 393.116 9.23666L411.59 8.08208C414.188 8.11 415.031 8.88315 415.053 12.1231C415.062 14.2939 414.392 14.9938 411.59 15.0096C410.008 14.9714 409.325 14.6271 409.28 12.1231C410.479 11.3218 410.951 11.4169 411.59 12.1231C410.706 12.0913 410.424 12.31 410.435 13.2777C410.446 13.7125 410.682 13.8534 411.59 13.855C412.897 13.8093 413.29 13.4466 413.321 12.1231C413.3 10.5985 413.036 10.3765 411.59 10.3912C406.51 10.5179 403.949 10.7281 400.044 11.5458C406.723 15.5472 410.756 16.7654 418.517 17.3191H423.713C430.357 17.2659 432.232 15.8692 432.372 10.9689C432.331 6.12837 431.023 4.71574 426.599 4.61861C422.947 4.5928 422.003 5.69578 421.981 9.23701C422.072 10.6246 422.578 11.0342 424.29 10.9689C425.165 10.8993 425.4 10.2206 425.445 8.08243C427.62 8.06996 428.251 8.70409 428.331 10.9688C428.225 13.5837 427.361 14.3755 424.29 14.4326C419.971 14.5035 418.637 13.8899 418.517 9.23701C418.527 1.91024 421.388 1.25655 426.599 1.15486C433.614 1.16316 435.771 3.15674 435.836 10.9688C435.807 18.3645 432.853 20.1469 423.713 20.2055Z" fill="#F8F7FD"/>
<path d="M300.75 18.4733C327.094 27.4263 351.206 24.2378 384.457 13.855C386.561 13.9517 387.292 14.5821 387.343 17.3187C387.264 18.9262 386.92 19.5702 385.034 19.6279C383.279 19.6147 382.727 19.3856 382.725 18.4733C382.762 17.5384 383.364 17.3115 385.034 17.3187C385.064 15.8423 384.613 15.4135 382.725 15.5869C381.127 15.9204 380.529 16.4466 380.416 18.4733C380.372 21.3103 381.553 21.9298 385.034 21.9371C388.775 21.8047 390.057 20.9346 390.23 17.3187C390.169 12.9808 388.919 11.6859 384.457 11.5458C378.006 11.402 362.644 15.2889 361.365 16.7415C361.92 14.3941 362.131 13.1433 361.942 10.9685C361.743 6.42799 360.189 5.32584 356.17 4.61833C351.25 5.61999 349.983 7.08908 349.819 10.9685C350.364 14.7209 351.447 15.7573 354.438 16.1642C357.631 14.3845 358.259 13.0844 357.901 10.3912C356.948 11.9722 356.225 12.6436 354.438 13.2777C353.222 12.9038 352.739 12.5017 352.706 10.9685C352.708 8.64716 353.623 8.00137 356.17 7.50479C358.764 7.6611 359.645 8.29545 359.633 10.9685C360.385 19.2334 349.429 20.9461 330.769 19.6279C337.313 16.067 338.72 13.4356 338.851 8.08208C338.435 2.09081 336.755 0.361744 331.346 0C325.898 0.357089 324.384 1.76531 324.419 6.35021C324.533 10.0114 325.682 10.6847 328.46 10.9685C331.374 10.378 332.208 9.58968 332.501 7.50479C332.241 5.55091 331.653 4.88334 329.614 4.61833C330.567 6.99283 330.463 7.86008 328.46 8.08208C327.554 7.61783 327.323 7.22804 327.305 6.35021C327.046 3.03945 328.358 2.55814 331.346 2.30917C335.402 2.89799 336.488 4.21056 336.542 8.08208C333.996 21.4909 304.899 22.2683 301.904 12.7004C301.977 10.3613 302.785 9.63959 305.368 9.23666C308.033 9.33371 308.79 9.96659 308.832 12.1231C308.677 13.2767 308.188 13.6647 306.522 13.855C305.489 12.782 307.1 12.1231 306.522 11.5458C305.945 10.9685 304.213 12.7004 304.213 12.7004C303.609 14.3235 304.272 15.0509 306.522 16.1642C310.366 15.0121 311.149 14.0801 311.141 12.1231C311.189 8.18193 309.642 7.12438 305.368 6.35021C299.771 6.61941 298.548 9.07362 299.595 17.3187C297.906 18.6024 297.373 19.4657 297.286 21.3598C297.226 22.6653 297.863 23.0917 300.172 23.669C302.481 24.2462 303.046 20.941 301.327 19.6279C301.247 20.8542 300.901 21.3804 299.595 21.9371C298.314 20.3865 298.509 19.6128 300.75 18.4733Z" fill="#F8F7FD"/>
<path d="M298.437 13.2777C298.437 18.0601 295.335 21.9371 291.509 21.9371C287.683 21.9371 284.582 18.0601 284.582 13.2777C284.582 8.49526 287.683 4.61833 291.509 4.61833C295.335 4.61833 298.437 8.49526 298.437 13.2777Z" fill="#F8F7FD"/>
<path d="M198.565 13.855C231.816 24.2378 255.928 27.4263 282.272 18.4733C284.513 19.6128 284.708 20.3865 283.427 21.9371C282.121 21.3804 281.775 20.8542 281.695 19.6279C279.976 20.941 280.541 24.2462 282.85 23.669C285.159 23.0917 285.796 22.6653 285.736 21.3598C285.649 19.4657 285.116 18.6024 283.427 17.3187C284.474 9.07362 283.251 6.61941 277.654 6.35021C273.38 7.12438 271.833 8.18193 271.881 12.1231C271.873 14.0801 272.656 15.0121 276.5 16.1642C278.75 15.0509 279.413 14.3235 278.809 12.7004C278.809 12.7004 277.077 10.9685 276.5 11.5458C275.922 12.1231 277.533 12.782 276.5 13.855C274.834 13.6647 274.345 13.2767 274.19 12.1231C274.232 9.96659 274.989 9.33371 277.654 9.23666C280.237 9.63959 281.045 10.3613 281.118 12.7004C278.123 22.2683 249.026 21.4909 246.48 8.08208C246.534 4.21056 247.62 2.89799 251.676 2.30917C254.664 2.55814 255.976 3.03945 255.717 6.35021C255.699 7.22804 255.468 7.61783 254.562 8.08208C252.559 7.86008 252.455 6.99283 253.408 4.61833C251.369 4.88334 250.781 5.55091 250.521 7.50479C250.814 9.58968 251.648 10.378 254.562 10.9685C257.34 10.6847 258.489 10.0114 258.603 6.35021C258.638 1.76531 257.124 0.357089 251.676 0C246.267 0.361744 244.587 2.09081 244.171 8.08208C244.302 13.4356 245.709 16.067 252.253 19.6279C233.593 20.9461 222.637 19.2334 223.389 10.9685C223.377 8.29545 224.258 7.6611 226.852 7.50479C229.399 8.00137 230.314 8.64716 230.316 10.9685C230.283 12.5017 229.8 12.9038 228.584 13.2777C226.797 12.6436 226.074 11.9722 225.121 10.3912C224.763 13.0844 225.391 14.3845 228.584 16.1642C231.575 15.7573 232.658 14.7209 233.203 10.9685C233.039 7.08908 231.772 5.61999 226.852 4.61833C222.833 5.32584 221.279 6.42799 221.08 10.9685C220.891 13.1433 221.102 14.3941 221.657 16.7415C220.378 15.2889 205.016 11.402 198.565 11.5458C194.103 11.6859 192.853 12.9808 192.792 17.3187C192.965 20.9346 194.247 21.8047 197.988 21.9371C201.469 21.9298 202.65 21.3103 202.606 18.4733C202.493 16.4466 201.895 15.9204 200.297 15.5869C198.409 15.4135 197.958 15.8423 197.988 17.3187C199.658 17.3115 200.26 17.5384 200.297 18.4733C200.295 19.3856 199.743 19.6147 197.988 19.6279C196.102 19.5702 195.758 18.9262 195.679 17.3187C195.73 14.5821 196.461 13.9517 198.565 13.855Z" fill="#F8F7FD"/>
<path d="M164.505 20.2055H159.309C150.169 20.1469 147.215 18.3645 147.186 10.9688C147.251 3.15674 149.408 1.16316 156.423 1.15486C161.634 1.25655 164.495 1.91024 164.505 9.23701C164.385 13.8899 163.051 14.5035 158.732 14.4326C155.661 14.3755 154.797 13.5837 154.691 10.9688C154.771 8.70409 155.402 8.06996 157.577 8.08243C157.622 10.2206 157.857 10.8993 158.732 10.9689C160.444 11.0342 160.95 10.6246 161.041 9.23701C161.019 5.69578 160.075 4.5928 156.423 4.61861C151.999 4.71574 150.691 6.12837 150.65 10.9689C150.79 15.8692 152.665 17.2659 159.309 17.3191H164.505C172.266 16.7654 176.299 15.5472 182.978 11.5458C179.073 10.7281 176.512 10.5179 171.432 10.3912C169.986 10.3765 169.722 10.5985 169.701 12.1231C169.732 13.4466 170.125 13.8093 171.432 13.855C172.34 13.8534 172.576 13.7125 172.587 13.2777C172.598 12.31 172.316 12.0913 171.432 12.1231C172.071 11.4169 172.543 11.3218 173.742 12.1231C173.697 14.6271 173.014 14.9714 171.432 15.0096C168.63 14.9938 167.96 14.2939 167.969 12.1231C167.991 8.88315 168.834 8.11 171.432 8.08208L189.906 9.23666C200.55 7.76229 206.48 8.44594 217.038 12.1231C217.907 12.0903 218.183 11.8606 218.193 10.9685C218.218 9.68096 217.978 9.28395 217.038 9.23666C216.566 9.25985 216.469 9.41013 216.461 9.81396C217.016 10.4874 217.142 10.7301 217.038 10.9685C215.791 10.9507 215.386 10.7184 215.307 9.81396C215.309 8.5228 215.649 8.10018 217.038 8.08208C219.243 8.11358 219.911 8.70782 219.925 10.9685C219.893 13.2554 219.243 13.8589 217.038 13.855C204.752 10.0823 198.691 9.36598 189.906 11.5458L182.978 15.5869C176.831 18.7371 172.716 19.6631 164.505 20.2055Z" fill="#F8F7FD"/>
<path d="M48.7557 63.2873C48.7557 52.7714 48.7557 50.8594 48.9151 48.7084C49.0744 46.3184 49.4727 45.3624 51.3051 44.9641C52.1814 44.8047 52.5797 44.8047 53.0577 44.8047C53.3764 44.8047 53.695 44.4861 53.695 44.2471C53.695 43.8488 53.2967 43.6894 52.5 43.6894C50.4287 43.6894 45.9674 43.8488 45.5691 43.8488C45.2504 43.8488 40.7094 43.6894 37.6025 43.6894C36.8058 43.6894 36.4871 43.8488 36.4871 44.2471C36.4871 44.4861 36.7261 44.8047 37.0448 44.8047C37.6821 44.8047 38.8771 44.8844 39.4348 44.9641C41.7451 45.2827 42.0638 46.3981 42.2231 48.7084C42.3028 50.8594 42.3824 52.9307 42.3824 63.4466V64.8806C42.3824 65.279 42.2231 65.279 41.9841 65.279H12.7466C12.5076 65.279 12.3483 65.279 12.3483 64.8806V63.4466C12.3483 52.9307 12.3483 50.8594 12.4279 48.7084C12.5873 46.3184 12.9856 45.3624 14.8976 44.9641C15.6942 44.8047 16.1722 44.8047 16.6502 44.8047C16.8892 44.8047 17.2079 44.4861 17.2079 44.2471C17.2079 43.8488 16.8892 43.6894 16.0926 43.6894C13.9416 43.6894 9.48028 43.8488 9.16162 43.8488C8.76329 43.8488 4.30198 43.6894 1.11533 43.6894C0.318665 43.6894 0 43.8488 0 44.2471C0 44.4861 0.318665 44.8047 0.557663 44.8047C1.19499 44.8047 2.38999 44.8844 2.94765 44.9641C5.25797 45.2827 5.6563 46.3981 5.81564 48.7084C5.97497 50.8594 5.97497 52.7714 5.97497 63.2873V75.2373C5.97497 81.7699 5.97497 87.1075 5.57664 89.8958C5.25797 91.8875 5.09864 93.1622 3.74431 93.4808C3.10698 93.6402 2.23065 93.7995 1.59332 93.7995C1.19499 93.7995 1.03566 94.1181 1.03566 94.3571C1.03566 94.7555 1.43399 94.9148 2.15099 94.9148C4.30198 94.9148 8.76329 94.6758 9.16162 94.6758C9.48028 94.6758 13.9416 94.9148 17.8452 94.9148C18.6419 94.9148 18.9606 94.6758 18.9606 94.3571C18.9606 94.1181 18.8012 93.7995 18.4029 93.7995C17.7656 93.7995 16.2519 93.6402 15.2163 93.4808C13.1449 93.1622 12.9059 91.8875 12.6669 89.8958C12.3483 87.1075 12.3483 81.9292 12.3483 75.3966V68.625C12.3483 68.3063 12.5076 68.2266 12.7466 68.2266H41.9841C42.2231 68.2266 42.3824 68.3063 42.3824 68.625V75.3966C42.3824 81.9292 42.3824 87.0279 42.0638 89.8162C41.8248 91.8078 41.5858 93.1622 40.1518 93.4808C39.5145 93.6402 38.7178 93.7995 38.0805 93.7995C37.6821 93.7995 37.5228 94.1181 37.5228 94.3571C37.5228 94.7555 37.8415 94.9148 38.6381 94.9148C40.7094 94.9148 45.2504 94.6758 45.5691 94.6758C45.9674 94.6758 50.4287 94.9148 54.2527 94.9148C55.0494 94.9148 55.4477 94.6758 55.4477 94.3571C55.4477 94.1181 55.2884 93.7995 54.8104 93.7995C54.2527 93.7995 52.6594 93.6402 51.7034 93.4808C49.5524 93.1622 49.3931 91.8875 49.1541 89.8958C48.8354 87.1075 48.7557 81.7699 48.7557 75.2373V63.2873Z" fill="#F8F7FD"/>
<path d="M53.2177 69.1826C53.2177 81.3716 61.4233 95.7911 80.6228 95.7911C97.5121 95.7911 108.745 83.2835 108.745 68.147C108.745 52.373 96.7951 42.7334 81.0212 42.7334C61.6623 42.7334 53.2177 58.2683 53.2177 69.1826ZM60.4673 67.3503C60.4673 52.612 68.9119 45.2827 80.6228 45.2827C91.6964 45.2827 101.575 53.807 101.575 70.0589C101.575 89.6568 88.9081 93.0028 82.6145 93.0028C69.9476 93.0028 60.4673 83.1242 60.4673 67.3503Z" fill="#F8F7FD"/>
<path d="M118.566 63.2873C118.566 52.7714 118.566 50.8594 118.645 48.7084C118.805 46.3184 119.203 45.2827 121.274 44.8844C122.071 44.8047 123.107 44.7251 123.585 44.7251C123.824 44.7251 124.142 44.4861 124.142 44.2471C124.142 43.8488 123.744 43.6894 123.027 43.6894C120.876 43.6894 115.618 43.8488 115.299 43.8488C114.901 43.8488 110.519 43.6894 107.333 43.6894C106.536 43.6894 106.217 43.8488 106.217 44.2471C106.217 44.4861 106.536 44.8047 106.775 44.8047C107.412 44.8047 108.607 44.8844 109.165 44.9641C111.475 45.2827 111.874 46.3981 112.033 48.7084C112.192 50.8594 112.192 52.7714 112.192 63.2873V75.2373C112.192 81.7699 112.192 87.1075 111.794 89.8958C111.475 91.8875 111.316 93.1622 109.962 93.4808C109.324 93.6402 108.448 93.7995 107.811 93.7995C107.412 93.7995 107.253 94.1181 107.253 94.3571C107.253 94.7555 107.651 94.9148 108.368 94.9148C109.484 94.9148 110.997 94.8351 112.431 94.7555C113.786 94.6758 114.981 94.6758 115.299 94.6758C117.371 94.6758 119.761 94.7555 122.947 94.8351C126.214 94.9945 130.117 95.0741 135.136 95.0741C138.881 95.0741 139.12 94.8351 139.598 93.2418C140.155 91.2502 140.633 87.1872 140.633 86.4702C140.633 85.7532 140.474 85.4345 140.155 85.4345C139.757 85.4345 139.518 85.8329 139.438 86.3109C139.199 87.6652 138.642 89.0992 137.765 90.1348C136.092 92.1265 132.985 92.2062 129.321 92.2062C123.824 92.2062 121.115 91.7282 120 90.6128C118.725 89.4178 118.566 85.3549 118.566 75.3966V63.2873Z" fill="#F8F7FD"/>
<path d="M150.046 63.2873C150.046 52.7714 150.046 50.8594 150.126 48.7084C150.285 46.3184 150.684 45.2827 152.755 44.8844C153.552 44.8047 154.587 44.7251 155.065 44.7251C155.304 44.7251 155.623 44.4861 155.623 44.2471C155.623 43.8488 155.225 43.6894 154.508 43.6894C152.357 43.6894 147.099 43.8488 146.78 43.8488C146.382 43.8488 142 43.6894 138.813 43.6894C138.017 43.6894 137.698 43.8488 137.698 44.2471C137.698 44.4861 138.017 44.8047 138.256 44.8047C138.893 44.8047 140.088 44.8844 140.646 44.9641C142.956 45.2827 143.354 46.3981 143.514 48.7084C143.673 50.8594 143.673 52.7714 143.673 63.2873V75.2373C143.673 81.7699 143.673 87.1075 143.275 89.8958C142.956 91.8875 142.797 93.1622 141.442 93.4808C140.805 93.6402 139.929 93.7995 139.291 93.7995C138.893 93.7995 138.734 94.1181 138.734 94.3571C138.734 94.7555 139.132 94.9148 139.849 94.9148C140.964 94.9148 142.478 94.8351 143.912 94.7555C145.266 94.6758 146.461 94.6758 146.78 94.6758C148.851 94.6758 151.241 94.7555 154.428 94.8351C157.694 94.9945 161.598 95.0741 166.617 95.0741C170.361 95.0741 170.6 94.8351 171.078 93.2418C171.636 91.2502 172.114 87.1872 172.114 86.4702C172.114 85.7532 171.955 85.4345 171.636 85.4345C171.238 85.4345 170.999 85.8329 170.919 86.3109C170.68 87.6652 170.122 89.0992 169.246 90.1348C167.573 92.1265 164.466 92.2062 160.801 92.2062C155.304 92.2062 152.596 91.7282 151.48 90.6128C150.206 89.4178 150.046 85.3549 150.046 75.3966V63.2873Z" fill="#F8F7FD"/>
<path d="M165.398 69.1826C165.398 81.3716 173.603 95.7911 192.803 95.7911C209.692 95.7911 220.925 83.2835 220.925 68.147C220.925 52.373 208.975 42.7334 193.201 42.7334C173.842 42.7334 165.398 58.2683 165.398 69.1826ZM172.647 67.3503C172.647 52.612 181.092 45.2827 192.803 45.2827C203.876 45.2827 213.755 53.807 213.755 70.0589C213.755 89.6568 201.088 93.0028 194.794 93.0028C182.128 93.0028 172.647 83.1242 172.647 67.3503Z" fill="#F8F7FD"/>
<path d="M256.037 47.1151C255.16 44.8047 254.603 43.9284 254.125 43.9284C253.726 43.9284 253.248 44.3268 252.213 47.0354L237.554 84.8769H237.395C236.518 82.0885 229.348 57.2327 228.233 52.9307C227.436 49.9034 226.879 47.5134 226.879 46.6371C226.879 45.7607 227.357 45.3624 227.835 45.2031C228.631 44.8047 229.747 44.8047 230.304 44.8047C230.623 44.8047 231.021 44.5658 231.021 44.1674C231.021 43.8488 230.703 43.6894 229.747 43.6894C226.241 43.6894 223.055 43.8488 222.418 43.8488C221.701 43.8488 217.797 43.6894 214.132 43.6894C213.495 43.6894 213.017 43.8488 213.017 44.1674C213.017 44.5658 213.336 44.8047 213.654 44.8047C214.132 44.8047 215.885 44.8844 216.841 45.2031C218.673 45.8404 219.39 46.7167 220.506 50.3017L232.933 90.4535C234.367 95.0741 234.925 95.7911 235.642 95.7911C236.439 95.7911 236.917 95.0741 238.112 92.2062C240.661 85.9125 250.141 61.1363 252.531 55.241L266.234 92.2858C267.19 94.9148 267.827 95.7911 268.544 95.7911C269.341 95.7911 269.739 94.9945 271.572 89.9755C274.36 82.4072 281.291 60.8973 284.398 52.2934C285.752 48.5491 286.867 45.8404 288.939 45.1234C289.735 44.8844 291.09 44.8047 291.329 44.8047C291.807 44.8047 291.966 44.4064 291.966 44.0878C291.966 43.8488 291.647 43.6894 291.01 43.6894C288.859 43.6894 285.832 43.8488 285.354 43.8488C284.717 43.8488 281.769 43.6894 278.184 43.6894C277.308 43.6894 276.989 43.8488 276.989 44.1674C276.989 44.4064 277.228 44.8047 277.626 44.8047C280.813 44.8047 281.371 45.6014 281.371 46.7964C281.371 47.6727 281.291 48.4694 280.574 51.0187C278.104 59.7023 271.811 79.3002 270.058 84.8769H269.739L256.037 47.1151Z" fill="#F8F7FD"/>
<path d="M306.861 75.2373C306.861 81.7699 306.861 87.1075 306.463 89.8958C306.144 91.8875 305.985 93.1622 304.631 93.4808C303.993 93.6402 303.117 93.7995 302.48 93.7995C302.081 93.7995 301.922 94.1181 301.922 94.3571C301.922 94.7555 302.32 94.9148 303.037 94.9148C305.188 94.9148 309.411 94.6758 309.968 94.6758C310.526 94.6758 314.748 94.9148 318.174 94.9148C318.971 94.9148 319.289 94.6758 319.289 94.3571C319.289 94.1181 319.13 93.7995 318.732 93.7995C318.094 93.7995 316.979 93.6402 316.023 93.4808C313.872 93.1622 313.553 91.8875 313.314 89.8958C312.996 87.1075 312.996 81.7699 312.996 75.2373V68.625H313.314C316.66 72.6083 331.398 88.1432 334.585 90.6128C337.612 92.9232 339.445 94.4368 343.109 94.7555C344.703 94.9148 345.977 94.9148 347.969 94.9148H351.554C352.749 94.9148 353.068 94.6758 353.068 94.3571C353.068 94.0385 352.669 93.7995 352.191 93.7995C351.713 93.7995 349.722 93.5605 347.889 92.8435C344.543 91.4892 343.747 90.6128 337.851 85.3549C334.983 82.7259 320.405 68.147 318.572 66.1553C320.086 64.4823 332.036 53.0104 333.788 51.417C336.895 48.4694 338.25 46.9557 341.118 45.6811C342.472 45.1234 343.986 44.7251 345.021 44.7251C345.579 44.7251 345.738 44.4861 345.738 44.1674C345.738 43.8488 345.42 43.6894 344.703 43.6894C342.95 43.6894 338.329 43.8488 337.931 43.8488C336.258 43.8488 334.107 43.6894 332.673 43.6894C332.195 43.6894 331.876 43.8488 331.876 44.1674C331.876 44.4064 332.115 44.7251 332.514 44.8047C333.071 44.8844 333.39 45.2827 333.39 46.1591C333.39 47.2744 331.558 49.0271 329.566 51.0187C326.937 53.7274 314.43 66.0756 313.314 67.3503H312.996V63.2873C312.996 52.7714 312.996 50.8594 313.155 48.7084C313.314 46.3184 313.792 45.3624 315.625 44.9641C316.501 44.8047 316.899 44.8047 317.377 44.8047C317.696 44.8047 317.935 44.4861 317.935 44.2471C317.935 43.8488 317.616 43.6894 316.82 43.6894C314.748 43.6894 310.526 43.8488 309.889 43.8488C309.49 43.8488 305.188 43.6894 302.002 43.6894C301.205 43.6894 300.886 43.8488 300.886 44.2471C300.886 44.4861 301.205 44.8047 301.444 44.8047C302.081 44.8047 303.276 44.8844 303.834 44.9641C306.144 45.2827 306.543 46.3981 306.702 48.7084C306.861 50.8594 306.861 52.7714 306.861 63.2873V75.2373Z" fill="#F8F7FD"/>
<path d="M350.918 53.7274C353.069 56.1174 360.956 64.4026 369.082 72.9269C376.491 80.6546 386.608 90.6128 387.325 91.2502C391.229 94.8352 391.946 95.3928 392.663 95.3928C393.141 95.3928 393.221 94.9945 393.221 90.5332L393.38 50.8594C393.38 46.7964 393.539 45.4421 395.85 44.9641C396.646 44.8047 397.204 44.8047 397.523 44.8047C398.001 44.8047 398.319 44.4064 398.319 44.1674C398.319 43.7691 397.762 43.6894 397.045 43.6894C394.177 43.6894 391.866 43.8488 391.07 43.8488C390.273 43.8488 386.927 43.6894 383.74 43.6894C382.944 43.6894 382.386 43.7691 382.386 44.1674C382.386 44.4064 382.466 44.8047 382.944 44.8047C383.501 44.8047 385.095 44.8844 386.369 45.1234C388.52 45.5217 388.919 47.0354 388.998 51.417L389.715 85.3549C387.564 83.1242 380.076 75.0779 373.145 67.908C362.31 56.7547 352.113 45.9201 350.998 44.8047C350.281 44.0878 349.086 42.7334 348.289 42.7334C347.731 42.7334 347.333 43.4504 347.333 46.1591V84.9565C347.333 91.0908 347.094 92.9232 345.341 93.4012C344.306 93.7198 343.031 93.7995 342.473 93.7995C342.155 93.7995 341.916 94.0385 341.916 94.3571C341.916 94.8351 342.314 94.9148 343.031 94.9148C346.218 94.9148 349.165 94.6758 349.803 94.6758C350.44 94.6758 353.228 94.9148 357.212 94.9148C358.008 94.9148 358.486 94.7555 358.486 94.3571C358.486 94.0385 358.247 93.7995 357.929 93.7995C357.291 93.7995 355.698 93.7198 354.423 93.4012C352.511 92.9232 351.874 91.2502 351.715 85.6735L350.918 53.7274Z" fill="#F8F7FD"/>
<path d="M408.794 63.2873C408.794 52.7714 408.794 50.8594 408.873 48.7084C409.033 46.3184 409.431 45.3624 411.343 44.9641C412.14 44.8047 412.618 44.8047 413.096 44.8047C413.335 44.8047 413.653 44.4861 413.653 44.2471C413.653 43.8488 413.335 43.6894 412.538 43.6894C410.387 43.6894 405.846 43.8488 405.527 43.8488C405.129 43.8488 400.747 43.6894 398.437 43.6894C397.64 43.6894 397.322 43.8488 397.322 44.2471C397.322 44.4861 397.561 44.8047 397.879 44.8047C398.357 44.8047 399.234 44.8844 400.03 45.0437C401.544 45.3624 402.102 46.3981 402.261 48.7084C402.42 50.8594 402.42 52.7714 402.42 63.2873V75.2373C402.42 81.7699 402.341 87.1075 402.022 89.8958C401.783 91.8875 401.544 93.1622 400.19 93.4808C399.552 93.6402 398.676 93.7995 398.039 93.7995C397.64 93.7995 397.481 94.1181 397.481 94.3571C397.481 94.7555 397.879 94.9148 398.596 94.9148C400.747 94.9148 405.129 94.6758 405.527 94.6758C405.846 94.6758 410.387 94.9148 414.291 94.9148C415.087 94.9148 415.406 94.6758 415.406 94.3571C415.406 94.1181 415.247 93.7995 414.848 93.7995C414.211 93.7995 412.697 93.6402 411.662 93.4808C409.59 93.1622 409.351 91.8875 409.112 89.8958C408.794 87.1075 408.794 81.7699 408.794 75.2373V63.2873Z" fill="#F8F7FD"/>
<path d="M454.124 89.3382C454.124 90.6128 453.566 90.9315 452.69 91.4095C450.857 92.4452 447.591 92.6842 445.121 92.6842C438.668 92.6842 432.773 90.7722 427.196 85.5939C424.727 83.2835 419.787 76.4322 419.787 66.8723C419.787 58.9853 422.655 52.9307 426.718 49.8237C432.056 45.7607 437.155 45.4421 441.377 45.4421C450.459 45.4421 455.797 48.1507 457.549 50.7C458.665 52.2934 459.063 54.285 459.143 55.1614C459.143 55.7987 459.222 56.197 459.621 56.197C460.099 56.197 460.417 55.8784 460.417 54.763C460.417 47.9914 460.816 46.1591 460.816 45.2031C460.816 44.8844 460.656 44.5658 459.939 44.5658C458.187 44.5658 455.717 44.1674 454.283 43.8488C452.929 43.5301 447.989 42.7334 443.528 42.7334C438.19 42.7334 431.18 43.2114 424.886 47.0354C418.672 50.7797 413.175 58.4277 413.175 69.2623C413.175 77.7069 417.238 84.9565 421.54 88.5415C429.347 95.1538 439.306 95.7911 444.643 95.7911C448.706 95.7911 455.08 95.0741 459.541 92.7638C460.417 92.2858 460.497 92.2062 460.497 89.0992V81.5309C460.497 78.6629 460.497 76.6712 460.577 74.5203C460.736 72.1303 461.294 71.0946 463.206 70.7759C464.002 70.6166 464.48 70.6166 464.958 70.6166C465.197 70.6166 465.516 70.2979 465.516 70.0589C465.516 69.5809 465.197 69.5013 464.401 69.5013C462.25 69.5013 457.868 69.6606 457.549 69.6606C457.151 69.6606 452.451 69.5013 449.264 69.5013C448.467 69.5013 448.149 69.5809 448.149 70.0589C448.149 70.2979 448.467 70.6166 448.706 70.6166C449.344 70.6166 450.539 70.6963 451.096 70.7759C453.964 71.3336 454.124 72.1303 454.124 77.6272V89.3382Z" fill="#F8F7FD"/>
<path d="M513.219 63.2873C513.219 52.7714 513.219 50.8594 513.378 48.7084C513.538 46.3184 513.936 45.3624 515.768 44.9641C516.645 44.8047 517.043 44.8047 517.521 44.8047C517.84 44.8047 518.158 44.4861 518.158 44.2471C518.158 43.8488 517.76 43.6894 516.963 43.6894C514.892 43.6894 510.431 43.8488 510.033 43.8488C509.714 43.8488 505.173 43.6894 502.066 43.6894C501.269 43.6894 500.951 43.8488 500.951 44.2471C500.951 44.4861 501.19 44.8047 501.508 44.8047C502.146 44.8047 503.341 44.8844 503.898 44.9641C506.209 45.2827 506.527 46.3981 506.687 48.7084C506.766 50.8594 506.846 52.9307 506.846 63.4466V64.8806C506.846 65.279 506.687 65.279 506.448 65.279H477.21C476.971 65.279 476.812 65.279 476.812 64.8806V63.4466C476.812 52.9307 476.812 50.8594 476.891 48.7084C477.051 46.3184 477.449 45.3624 479.361 44.9641C480.158 44.8047 480.636 44.8047 481.114 44.8047C481.353 44.8047 481.671 44.4861 481.671 44.2471C481.671 43.8488 481.353 43.6894 480.556 43.6894C478.405 43.6894 473.944 43.8488 473.625 43.8488C473.227 43.8488 468.765 43.6894 465.579 43.6894C464.782 43.6894 464.463 43.8488 464.463 44.2471C464.463 44.4861 464.782 44.8047 465.021 44.8047C465.658 44.8047 466.853 44.8844 467.411 44.9641C469.721 45.2827 470.12 46.3981 470.279 48.7084C470.438 50.8594 470.438 52.7714 470.438 63.2873V75.2373C470.438 81.7699 470.438 87.1075 470.04 89.8958C469.721 91.8875 469.562 93.1622 468.208 93.4808C467.57 93.6402 466.694 93.7995 466.057 93.7995C465.658 93.7995 465.499 94.1181 465.499 94.3571C465.499 94.7555 465.897 94.9148 466.614 94.9148C468.765 94.9148 473.227 94.6758 473.625 94.6758C473.944 94.6758 478.405 94.9148 482.309 94.9148C483.105 94.9148 483.424 94.6758 483.424 94.3571C483.424 94.1181 483.265 93.7995 482.866 93.7995C482.229 93.7995 480.715 93.6402 479.68 93.4808C477.608 93.1622 477.369 91.8875 477.13 89.8958C476.812 87.1075 476.812 81.9292 476.812 75.3966V68.625C476.812 68.3063 476.971 68.2266 477.21 68.2266H506.448C506.687 68.2266 506.846 68.3063 506.846 68.625V75.3966C506.846 81.9292 506.846 87.0279 506.527 89.8162C506.288 91.8078 506.049 93.1622 504.615 93.4808C503.978 93.6402 503.181 93.7995 502.544 93.7995C502.146 93.7995 501.986 94.1181 501.986 94.3571C501.986 94.7555 502.305 94.9148 503.102 94.9148C505.173 94.9148 509.714 94.6758 510.033 94.6758C510.431 94.6758 514.892 94.9148 518.716 94.9148C519.513 94.9148 519.911 94.6758 519.911 94.3571C519.911 94.1181 519.752 93.7995 519.274 93.7995C518.716 93.7995 517.123 93.6402 516.167 93.4808C514.016 93.1622 513.856 91.8875 513.617 89.8958C513.299 87.1075 513.219 81.7699 513.219 75.2373V63.2873Z" fill="#F8F7FD"/>
<path d="M542.033 46.7964L550.796 46.9557C557.488 47.1151 559.002 48.6287 559.241 50.7L559.32 51.417C559.4 52.373 559.559 52.612 559.878 52.612C560.197 52.612 560.515 52.2934 560.515 51.7357C560.515 50.9391 560.754 46.0794 560.754 44.0081C560.754 43.6098 560.754 43.2114 560.436 43.2114C560.117 43.2114 559.48 43.3708 558.444 43.5301C557.329 43.6894 555.735 43.8488 553.425 43.8488H526.976C526.179 43.8488 523.471 43.7691 521.479 43.5301C519.567 43.2911 518.85 42.7334 518.372 42.7334C518.133 42.7334 517.814 43.6098 517.655 44.0081C517.575 44.5658 516.141 50.6204 516.141 51.3374C516.141 51.7357 516.46 51.895 516.619 51.895C516.938 51.895 517.177 51.8154 517.336 51.2577C517.575 50.7797 517.655 50.3017 518.452 49.1067C519.487 47.5134 521.16 47.0354 525.542 46.9557L535.66 46.7964V75.2373C535.66 81.7699 535.66 87.1075 535.341 89.8958C535.102 91.8875 534.704 93.2418 533.27 93.5605C532.632 93.7198 531.836 93.8792 531.198 93.8792C530.8 93.8792 530.641 94.1181 530.641 94.3571C530.641 94.7555 530.959 94.9148 531.756 94.9148C533.827 94.9148 538.687 94.6758 539.006 94.6758C539.404 94.6758 543.865 94.9148 547.689 94.9148C548.486 94.9148 548.804 94.6758 548.804 94.3571C548.804 94.1181 548.725 93.7995 548.247 93.7995C547.609 93.7995 546.016 93.6402 545.06 93.4808C542.909 93.1622 542.591 91.8875 542.352 89.8958C542.033 87.1075 542.033 81.7699 542.033 75.2373V46.7964Z" fill="#F8F7FD"/>
<ellipse cx="291.278" cy="127.581" rx="15.5869" ry="22.5144" fill="#F8F7FD"/>
<ellipse cx="291.277" cy="158.755" rx="5.19562" ry="7.50479" fill="#F8F7FD"/>
<path fill-rule="evenodd" clip-rule="evenodd" d="M278.826 110.406C273.929 107.599 270.182 106.088 266.639 105.83C263.08 105.571 259.794 106.58 255.83 108.666L255.449 108.866L255.591 109.273C257.211 113.906 259.156 116.875 262.065 118.829C264.954 120.771 268.73 121.666 273.898 122.305L273.928 122.309L273.959 122.309L276.845 122.309L277.037 122.309L277.179 122.181C279.407 120.182 280.944 118.491 281.343 116.648C281.755 114.747 280.937 112.849 278.958 110.517L278.902 110.45L278.826 110.406ZM262.623 117.999C260.044 116.266 258.23 113.634 256.68 109.351C260.382 107.449 263.379 106.595 266.567 106.827C269.863 107.068 273.431 108.473 278.252 111.23C280.13 113.462 280.672 115.021 280.366 116.436C280.05 117.891 278.817 119.353 276.653 121.309L273.99 121.309C268.86 120.673 265.297 119.797 262.623 117.999Z" fill="#F8F7FD"/>
<path d="M266.454 110.84L273.382 116.613C274.352 116.831 274.861 116.822 275.691 116.613C276.781 116.115 276.706 115.147 275.691 114.304C274.558 113.971 274.281 114.398 273.959 115.458C272.982 113.048 273.484 112.54 276.268 113.149C278.426 113.615 278.66 114.461 278 116.613C277.546 118.512 276.324 118.82 272.804 118.345C267.656 114.72 266.545 113.549 265.877 113.149C264.808 112.191 264.296 112.014 263.568 112.572C263.438 113.267 263.749 113.652 265.877 114.304C265.999 115.245 265.629 115.503 264.145 115.458C262.184 114.688 261.592 113.904 261.258 111.994C262.242 109.844 263.355 109.562 266.454 110.84Z" fill="#F8F7FD"/>
<path fill-rule="evenodd" clip-rule="evenodd" d="M275.036 121.044C269.243 118.6 264.906 117.439 260.968 117.633C257.014 117.828 253.529 119.386 249.436 122.231L249.082 122.477L249.273 122.863C251.69 127.768 254.237 130.781 257.703 132.543C261.147 134.295 265.431 134.775 271.228 134.781L271.259 134.781L271.29 134.777L274.48 134.386L274.67 134.362L274.796 134.218C276.988 131.699 278.443 129.632 278.632 127.557C278.826 125.424 277.681 123.449 275.181 121.138L275.117 121.078L275.036 121.044ZM258.156 131.652C255.044 130.069 252.669 127.375 250.362 122.807C254.219 120.176 257.435 118.809 261.018 118.632C264.709 118.45 268.855 119.527 274.566 121.931C276.955 124.155 277.785 125.828 277.636 127.466C277.483 129.145 276.301 130.949 274.167 133.416L271.198 133.781C265.439 133.774 261.37 133.287 258.156 131.652Z" fill="#F8F7FD"/>
<path d="M261.442 123.15L269.884 128.604C270.986 128.714 271.547 128.635 272.436 128.291C273.574 127.591 273.359 126.53 272.122 125.733C270.824 125.518 270.576 126.029 270.365 127.247C268.957 124.71 269.443 124.079 272.603 124.376C275.052 124.599 275.425 125.504 274.988 127.978C274.745 130.143 273.436 130.65 269.481 130.601C263.298 127.285 261.911 126.139 261.118 125.786C259.806 124.87 259.216 124.744 258.487 125.46C258.438 126.248 258.835 126.632 261.275 127.065C261.538 128.091 261.164 128.428 259.518 128.579C257.245 127.992 256.484 127.204 255.856 125.134C256.65 122.618 257.842 122.156 261.442 123.15Z" fill="#F8F7FD"/>
<path fill-rule="evenodd" clip-rule="evenodd" d="M274.89 132.702C270.602 132.715 267.545 133.143 265.094 134.33C262.629 135.523 260.838 137.454 259.018 140.338L258.788 140.702L259.115 140.984C261.947 143.422 264.376 144.652 267.064 144.835C269.729 145.017 272.573 144.163 276.213 142.621L276.241 142.609L276.268 142.594L278.164 141.499L278.33 141.403L278.389 141.221C279.094 139.066 279.477 137.336 279.027 135.932C278.558 134.471 277.254 133.516 275.06 132.731L274.977 132.701L274.89 132.702ZM267.132 143.838C264.839 143.681 262.693 142.675 260.098 140.506C261.781 137.913 263.399 136.262 265.53 135.23C267.758 134.151 270.607 133.721 274.805 133.702C275.409 133.922 275.913 134.146 276.332 134.378C276.347 134.379 276.362 134.379 276.377 134.379L276.605 134.384L276.75 134.56C276.794 134.613 276.838 134.667 276.881 134.721C277.533 135.183 277.896 135.68 278.074 136.237C278.3 136.941 278.26 137.81 277.997 138.958C277.939 139.307 277.853 139.677 277.736 140.07L277.68 140.261L277.637 140.286C277.593 140.43 277.546 140.577 277.498 140.729L275.794 141.712C272.188 143.238 269.54 144.002 267.132 143.838Z" fill="#F8F7FD"/>
<path d="M266.926 137.801L273.667 138.966C274.388 138.741 274.718 138.542 275.185 138.09C275.712 137.349 275.296 136.742 274.309 136.572C273.438 136.783 273.418 137.169 273.609 137.988C272.053 136.775 272.189 136.251 274.25 135.595C275.845 135.082 276.319 135.549 276.702 137.214C277.124 138.633 276.438 139.3 273.945 140.323C269.187 139.894 268.013 139.546 267.422 139.537C266.357 139.313 265.953 139.391 265.686 140.033C265.864 140.54 266.215 140.674 267.86 140.295C268.298 140.867 268.152 141.178 267.16 141.711C265.579 141.949 264.893 141.658 263.95 140.53C263.78 138.744 264.404 138.137 266.926 137.801Z" fill="#F8F7FD"/>
<path d="M291.277 183V178.959C290.098 176.447 288.238 173.913 284.927 171.454C286.774 170.526 287.686 171.736 287.814 173.186C290.212 172.484 290.123 171.454 290.123 169.145C290.123 166.267 288.374 165.608 285.53 164.536L285.504 164.527C282.251 165.084 281.465 166.029 281.463 168.568C285.489 166.333 286.762 166.292 286.659 169.145C283.931 168.31 282.826 168.566 282.618 172.031C287.691 177.16 289.396 179.466 291.277 183Z" fill="#F8F7FD"/>
<path fill-rule="evenodd" clip-rule="evenodd" d="M281.463 159.908C278.791 158.612 277.859 158.917 277.422 161.64C277.699 164.068 278.577 165.105 280.886 165.104C283.772 164.527 285.111 162.886 285.504 160.486C286.082 150.095 272.297 143.065 252.021 143.167C254.829 140.632 255.568 139.132 254.908 136.24C253.323 132.916 251.465 131.823 247.403 130.467C247.141 125.096 244.856 122.057 238.166 116.613C242.378 118.007 244.887 118.544 249.712 118.922C254.33 118.345 255.504 116.621 255.485 113.726C254.509 108.025 252.978 107.31 249.712 107.376C245.649 107.525 244.899 108.49 245.671 111.417C247.288 113.987 248.311 114.005 250.289 111.995C247.831 110.958 247.792 110.473 250.289 109.685C252.153 109.897 252.794 110.518 253.176 112.572C253.245 114.74 252.05 115.421 248.558 116.036C247.948 115.964 247.38 115.901 246.847 115.842C243.294 115.45 241.329 115.232 239.321 113.726C227.775 109.685 219.84 109.939 206.993 110.84C195.763 111.325 184.142 113.987 173.008 116.537C164.267 118.54 155.825 120.473 148.109 121.231C142.142 121.22 139.844 119.736 137.718 114.304C137.63 110.837 138.749 109.686 142.913 109.108C147.253 109.53 148.504 110.503 149.263 113.149C149.648 114.561 149.309 115.207 147.532 116.036C145.524 116.005 144.956 115.151 144.645 112.572C142.171 115.122 142.619 116.518 147.532 118.922C150.899 119.087 152.201 118.308 152.357 113.726C152.588 107.705 150.999 105.556 143.491 105.067C136.537 106.158 134.2 107.874 134.831 114.304C135.408 121.231 140.086 124.382 150.418 124.118C148.332 125.837 147.928 127.101 148.686 129.891C149.693 133.026 150.955 134.153 155.037 134.509C157.949 134.187 158.939 133.29 159.655 130.468C160.035 128.868 160.06 127.942 157.346 125.85C153.996 126.061 153.349 126.973 153.305 129.313C154.976 127.955 155.871 127.881 157.346 129.891C157.834 131.029 157.09 131.494 155.037 132.2C152.496 132.204 151.686 131.483 150.996 129.313C150.939 126.588 152.27 125.365 156.191 123.54C165.576 120.447 171.154 119.475 181.592 118.922C193.416 119.879 196.538 122.309 197.179 129.313C196.965 131.569 195.88 132.513 193.138 133.932C190.405 133.602 189.27 132.883 188.52 129.891C188.204 128.414 188.483 127.746 190.251 127.004C192.831 127.609 193.149 128.602 192.56 131.045C195.019 128.287 195.465 126.818 190.251 124.695C187.024 124.698 186.174 125.813 186.21 129.891C186.633 134.045 187.823 135.675 193.138 136.241C197.735 135.95 199.481 134.811 200.642 130.468C200.937 122.989 197.765 119.944 186.21 116.612C193.262 114.15 199.183 113.617 212.188 113.726C218.888 117.321 221.678 119.692 221.425 125.849H215.075C205.26 126.508 201.893 125.739 201.797 121.231C201.95 118.672 202.866 117.815 205.838 117.19C208.612 117.45 209.533 118.055 209.879 120.076C210.21 121.241 209.572 121.567 207.57 121.808C206.402 121.532 206.047 120.86 205.838 118.921C203.177 121.165 203.615 122.291 206.993 124.117C211.439 123.968 213.134 123.399 213.343 120.653C212.931 117.368 212.188 114.88 206.993 114.303C200.642 114.303 198.933 116.494 198.911 120.653C198.894 123.825 202.044 128.83 208.725 128.158C201.956 130.854 200.642 133.354 200.065 137.972C200.642 143.168 203.355 144.245 208.147 144.322C212.672 143.928 214.176 142.869 214.497 139.127C214.397 135.185 213.352 133.839 209.302 133.354C206.108 133.72 205.28 134.648 205.261 137.395C205.296 139.026 205.727 139.7 207.57 140.281C208.903 140.249 209.384 139.829 209.879 138.549C208.681 138.914 208.095 138.883 207.57 137.395C207.613 136.622 207.971 136.367 209.302 136.24C211.554 136.443 212.181 137.073 212.188 139.127C212.208 140.673 210.842 141.179 208.147 142.013C204.745 142.063 203.665 141.11 202.952 137.972C203.565 133.023 206.154 130.827 215.075 128.158C226.724 128.079 233.165 129.015 244.516 132.199C248.205 133.127 249.785 133.966 251.444 136.24C252.839 138.236 251.884 139.892 249.135 143.168C245.783 143.741 242.702 143.801 236.434 143.745C233.544 142.829 232.749 141.613 232.393 138.549C232.049 135.571 232.811 134.605 236.435 134.508C238.983 134.763 239.898 135.303 239.898 137.395C239.898 137.534 239.901 137.672 239.904 137.809C239.926 138.81 239.946 139.704 238.744 139.704C237.589 139.704 237.214 138.87 237.012 137.395C235.28 138.549 235.857 141.436 238.744 142.013C241.477 141.409 242.595 140.719 242.785 137.972C243.024 134.344 241.618 132.986 236.435 131.622C231.816 131.622 228.352 133.354 228.93 138.549C229.896 142.663 231.816 144.899 235.857 146.054C245.653 146.22 250.91 146.03 260.103 145.477C257.31 145.936 255.485 147.208 256.062 149.518C256.64 151.827 257.757 152.158 259.526 152.404C261.239 152.649 261.537 151.918 261.258 149.518C260.901 150.224 260.54 150.464 259.526 150.672C258.616 150.331 258.439 150.059 258.372 149.518C258.025 147.988 258.867 147.413 261.258 146.631C265.142 145.627 267.966 146.088 273.958 148.363C270.265 149.264 269.061 150.29 269.34 153.559C269.469 156.96 270.289 158.255 273.958 158.754C276.738 158.484 277.777 157.868 278 155.291C278.159 153.652 277.812 152.942 275.69 152.404C273.309 152.395 273.496 153.203 273.958 154.713C275.254 153.504 275.659 153.584 275.69 155.291C275.587 156.804 275.055 156.961 273.958 157.022C272.009 156.461 271.163 155.908 271.072 153.559C271.222 151.444 271.903 150.675 275.113 150.672C280.982 152.727 282.886 154.791 283.195 160.486C283.311 161.693 282.665 162.156 280.886 162.795C280.061 163.018 279.655 162.879 279.154 161.641C279.025 160.744 279.607 160.381 281.463 159.908ZM217.384 113.726C222.823 118.176 225.095 120.689 224.889 125.272C232.108 125.371 236.035 126.255 242.785 129.313C237.993 118.229 233.073 114.133 217.384 113.726Z" fill="#F8F7FD"/>
<path d="M95.5756 120.654C97.7312 125.136 99.9322 126.432 105.39 127.004C123.425 126.673 131.041 125.977 138.873 123.54C145.147 123.47 146.666 124.614 146.955 128.159C146.955 130.468 146.545 130.992 144.068 131.622C140.368 131.841 140.414 130.545 140.605 128.159C141.142 129.35 141.697 129.7 143.491 129.313C144.421 126.901 143.395 126.419 140.027 126.427C130.796 129.089 121.989 130.096 104.235 131.622C69.3831 132.858 63.5654 127.364 65.5562 111.995C66.3068 107.1 68.8883 106.012 74.7929 105.067C81.3801 105.499 84.6069 107.376 85.1842 114.304C85.1842 118.345 82.875 120.654 78.2566 121.231C73.6383 121.231 73.116 116.693 74.7929 113.149C75.5963 115.139 76.3132 115.946 78.2566 116.613C81.6662 113.695 80.8682 111.917 75.37 108.531C69.1921 109.175 68.1475 110.884 69.0199 115.458C69.9467 125.602 78.0822 127.997 100.771 128.736L100.702 128.693C95.3306 125.379 92.298 123.507 92.689 117.19C93.0784 114.728 94.2915 113.967 98.462 113.726C102.187 114.2 103.55 115.12 104.235 118.345C104.235 121.231 104.235 122.963 101.348 122.963C99.0392 122.963 97.2648 120.657 97.8847 118.922C102.503 121.809 101.926 116.613 98.462 116.613C94.9984 116.613 95.0528 118.029 95.5756 120.654Z" fill="#F8F7FD"/>
<path fill-rule="evenodd" clip-rule="evenodd" d="M303.961 110.406C308.858 107.599 312.605 106.088 316.147 105.83C319.706 105.571 322.992 106.58 326.956 108.666L327.338 108.866L327.196 109.273C325.575 113.906 323.63 116.875 320.721 118.829C317.832 120.771 314.056 121.666 308.889 122.305L308.858 122.309L308.828 122.309L305.941 122.309L305.75 122.309L305.607 122.181C303.379 120.182 301.843 118.491 301.443 116.648C301.032 114.747 301.849 112.849 303.828 110.517L303.885 110.45L303.961 110.406ZM320.164 117.999C322.743 116.266 324.556 113.634 326.107 109.351C322.404 107.449 319.408 106.595 316.22 106.827C312.923 107.068 309.356 108.473 304.534 111.23C302.656 113.462 302.114 115.021 302.421 116.436C302.736 117.891 303.969 119.353 306.133 121.309L308.797 121.309C313.927 120.673 317.489 119.797 320.164 117.999Z" fill="#F8F7FD"/>
<path d="M316.332 110.84L309.405 116.613C308.434 116.831 307.926 116.822 307.096 116.613C306.005 116.115 306.081 115.147 307.096 114.304C308.229 113.971 308.506 114.398 308.828 115.458C309.804 113.048 309.303 112.54 306.518 113.149C304.36 113.615 304.126 114.461 304.786 116.613C305.24 118.512 306.462 118.82 309.982 118.345C315.13 114.72 316.241 113.549 316.91 113.149C317.978 112.191 318.49 112.014 319.219 112.572C319.349 113.267 319.037 113.652 316.91 114.304C316.787 115.245 317.158 115.503 318.641 115.458C320.603 114.688 321.195 113.904 321.528 111.994C320.545 109.844 319.432 109.562 316.332 110.84Z" fill="#F8F7FD"/>
<path fill-rule="evenodd" clip-rule="evenodd" d="M307.75 121.044C313.543 118.6 317.88 117.439 321.818 117.633C325.772 117.828 329.257 119.386 333.35 122.231L333.704 122.477L333.514 122.863C331.096 127.768 328.549 130.781 325.084 132.543C321.639 134.295 317.355 134.775 311.558 134.781L311.527 134.781L311.497 134.777L308.306 134.386L308.116 134.362L307.99 134.218C305.798 131.699 304.343 129.632 304.154 127.557C303.96 125.424 305.105 123.449 307.605 121.138L307.67 121.078L307.75 121.044ZM324.63 131.652C327.742 130.069 330.117 127.375 332.424 122.807C328.567 120.176 325.351 118.809 321.769 118.632C318.078 118.45 313.932 119.527 308.22 121.931C305.832 124.155 305.001 125.828 305.15 127.466C305.303 129.145 306.485 130.949 308.619 133.416L311.588 133.781C317.348 133.774 321.416 133.287 324.63 131.652Z" fill="#F8F7FD"/>
<path d="M321.344 123.15L312.902 128.604C311.8 128.714 311.239 128.635 310.35 128.291C309.212 127.591 309.427 126.53 310.664 125.733C311.962 125.518 312.21 126.029 312.421 127.247C313.829 124.71 313.343 124.079 310.183 124.376C307.734 124.599 307.361 125.504 307.798 127.978C308.041 130.143 309.35 130.65 313.305 130.601C319.488 127.285 320.875 126.139 321.668 125.786C322.98 124.87 323.57 124.744 324.299 125.46C324.348 126.248 323.951 126.632 321.511 127.065C321.248 128.091 321.622 128.428 323.268 128.579C325.541 127.992 326.302 127.204 326.93 125.134C326.136 122.618 324.944 122.156 321.344 123.15Z" fill="#F8F7FD"/>
<path fill-rule="evenodd" clip-rule="evenodd" d="M307.896 132.702C312.184 132.715 315.241 133.143 317.692 134.33C320.157 135.523 321.948 137.454 323.768 140.338L323.998 140.702L323.671 140.984C320.839 143.422 318.41 144.652 315.721 144.835C313.056 145.017 310.213 144.163 306.573 142.621L306.545 142.609L306.518 142.594L304.622 141.499L304.456 141.403L304.396 141.221C303.692 139.066 303.309 137.336 303.759 135.932C304.227 134.471 305.532 133.516 307.726 132.731L307.808 132.701L307.896 132.702ZM315.653 143.838C317.947 143.681 320.092 142.675 322.688 140.506C321.004 137.913 319.387 136.262 317.256 135.23C315.027 134.151 312.178 133.721 307.981 133.702C307.377 133.922 306.873 134.146 306.454 134.378C306.439 134.379 306.424 134.379 306.409 134.379L306.181 134.384L306.036 134.56C305.992 134.613 305.948 134.667 305.905 134.721C305.253 135.182 304.89 135.68 304.711 136.237C304.485 136.942 304.526 137.813 304.789 138.963C304.847 139.31 304.933 139.678 305.05 140.07L305.106 140.261L305.149 140.286C305.193 140.43 305.239 140.577 305.288 140.729L306.991 141.712C310.597 143.238 313.246 144.002 315.653 143.838Z" fill="#F8F7FD"/>
<path d="M315.861 137.801L309.119 138.966C308.398 138.741 308.068 138.542 307.602 138.09C307.074 137.349 307.491 136.742 308.478 136.572C309.348 136.783 309.368 137.169 309.178 137.988C310.734 136.775 310.597 136.251 308.536 135.595C306.941 135.082 306.467 135.549 306.084 137.214C305.662 138.633 306.348 139.3 308.841 140.323C313.599 139.894 314.773 139.546 315.364 139.537C316.43 139.313 316.833 139.391 317.1 140.033C316.922 140.54 316.571 140.674 314.926 140.295C314.489 140.867 314.634 141.178 315.626 141.711C317.207 141.949 317.893 141.658 318.836 140.53C319.006 138.744 318.382 138.137 315.861 137.801Z" fill="#F8F7FD"/>
<path d="M291.509 183V178.959C292.689 176.447 294.548 173.913 297.859 171.454C296.013 170.526 295.1 171.736 294.973 173.186C292.574 172.484 292.664 171.454 292.664 169.145C292.664 166.267 294.413 165.608 297.257 164.536L297.282 164.527C300.535 165.084 301.321 166.029 301.323 168.568C297.298 166.333 296.024 166.292 296.128 169.145C298.856 168.31 299.961 168.566 300.169 172.031C295.096 177.16 293.391 179.466 291.509 183Z" fill="#F8F7FD"/>
<path fill-rule="evenodd" clip-rule="evenodd" d="M301.323 159.908C303.995 158.612 304.927 158.917 305.364 161.64C305.087 164.068 304.209 165.105 301.9 165.104C299.014 164.527 297.675 162.886 297.282 160.486C296.704 150.095 310.49 143.065 330.765 143.167C327.957 140.632 327.218 139.132 327.878 136.24C329.463 132.916 331.321 131.823 335.383 130.467C335.645 125.096 337.93 122.057 344.62 116.613C340.408 118.007 337.899 118.544 333.074 118.922C328.456 118.345 327.282 116.621 327.301 113.726C328.277 108.025 329.808 107.31 333.074 107.376C337.137 107.525 337.887 108.49 337.115 111.417C335.498 113.987 334.475 114.005 332.497 111.995C334.955 110.958 334.994 110.473 332.497 109.685C330.633 109.897 329.992 110.518 329.61 112.572C329.541 114.74 330.736 115.421 334.228 116.036C334.838 115.964 335.406 115.901 335.939 115.842C339.492 115.45 341.457 115.232 343.465 113.726C355.011 109.685 362.946 109.939 375.793 110.84C387.023 111.325 398.644 113.987 409.778 116.537C418.519 118.54 426.961 120.473 434.677 121.231C440.644 121.22 442.942 119.736 445.068 114.304C445.156 110.837 444.037 109.686 439.873 109.108C435.533 109.53 434.282 110.503 433.523 113.149C433.138 114.561 433.477 115.207 435.254 116.036C437.262 116.005 437.83 115.151 438.141 112.572C440.615 115.122 440.167 116.518 435.254 118.922C431.887 119.087 430.585 118.308 430.429 113.726C430.198 107.705 431.787 105.556 439.296 105.067C446.249 106.158 448.586 107.874 447.955 114.304C447.378 121.231 442.7 124.382 432.368 124.118C434.454 125.837 434.858 127.101 434.1 129.891C433.093 133.026 431.831 134.153 427.749 134.509C424.837 134.187 423.847 133.29 423.131 130.468C422.751 128.868 422.726 127.942 425.44 125.85C428.79 126.061 429.437 126.973 429.481 129.313C427.81 127.955 426.915 127.881 425.44 129.891C424.952 131.029 425.696 131.494 427.749 132.2C430.29 132.204 431.1 131.483 431.79 129.313C431.847 126.588 430.516 125.365 426.595 123.54C417.21 120.447 411.632 119.475 401.194 118.922C389.37 119.879 386.248 122.309 385.607 129.313C385.821 131.569 386.906 132.513 389.648 133.932C392.381 133.602 393.516 132.883 394.266 129.891C394.582 128.414 394.303 127.746 392.535 127.004C389.955 127.609 389.637 128.602 390.226 131.045C387.767 128.287 387.321 126.818 392.535 124.695C395.762 124.698 396.612 125.813 396.576 129.891C396.153 134.045 394.963 135.675 389.648 136.241C385.051 135.95 383.305 134.811 382.144 130.468C381.849 122.989 385.021 119.944 396.576 116.612C389.524 114.15 383.603 113.617 370.598 113.726C363.898 117.321 361.108 119.692 361.361 125.849H367.711C377.526 126.508 380.893 125.739 380.989 121.231C380.836 118.672 379.92 117.815 376.948 117.19C374.174 117.45 373.253 118.055 372.907 120.076C372.576 121.241 373.214 121.567 375.216 121.808C376.384 121.532 376.739 120.86 376.948 118.921C379.609 121.165 379.171 122.291 375.793 124.117C371.347 123.968 369.652 123.399 369.443 120.653C369.855 117.368 370.598 114.88 375.793 114.303C382.144 114.303 383.853 116.494 383.875 120.653C383.892 123.825 380.742 128.83 374.061 128.158C380.83 130.854 382.144 133.354 382.721 137.972C382.144 143.168 379.431 144.245 374.639 144.322C370.114 143.928 368.61 142.869 368.289 139.127C368.389 135.185 369.434 133.839 373.484 133.354C376.678 133.72 377.506 134.648 377.525 137.395C377.491 139.026 377.059 139.7 375.216 140.281C373.883 140.249 373.402 139.829 372.907 138.549C374.105 138.914 374.691 138.883 375.216 137.395C375.173 136.622 374.815 136.367 373.484 136.24C371.232 136.443 370.605 137.073 370.598 139.127C370.578 140.673 371.944 141.179 374.639 142.013C378.041 142.063 379.121 141.11 379.834 137.972C379.221 133.023 376.632 130.827 367.711 128.158C356.062 128.079 349.621 129.015 338.27 132.199C334.581 133.127 333.001 133.966 331.342 136.24C329.947 138.236 330.902 139.892 333.651 143.168C337.003 143.741 340.084 143.801 346.352 143.745C349.242 142.829 350.037 141.613 350.393 138.549C350.737 135.571 349.975 134.605 346.351 134.508C343.803 134.763 342.888 135.303 342.888 137.395C342.888 137.534 342.885 137.672 342.882 137.809C342.86 138.81 342.84 139.704 344.042 139.704C345.197 139.704 345.572 138.87 345.774 137.395C347.506 138.549 346.929 141.436 344.042 142.013C341.309 141.409 340.191 140.719 340.001 137.972C339.762 134.344 341.168 132.986 346.351 131.622C350.97 131.622 354.434 133.354 353.856 138.549C352.89 142.663 350.97 144.899 346.929 146.054C337.133 146.22 331.876 146.03 322.683 145.477C325.476 145.936 327.301 147.208 326.724 149.518C326.146 151.827 325.029 152.158 323.26 152.404C321.547 152.649 321.249 151.918 321.528 149.518C321.885 150.224 322.246 150.464 323.26 150.672C324.17 150.331 324.347 150.059 324.414 149.518C324.761 147.988 323.919 147.413 321.528 146.631C317.644 145.627 314.82 146.088 308.828 148.363C312.521 149.264 313.725 150.29 313.446 153.559C313.317 156.96 312.497 158.255 308.828 158.754C306.048 158.484 305.009 157.868 304.786 155.291C304.627 153.652 304.974 152.942 307.096 152.404C309.477 152.395 309.29 153.203 308.828 154.713C307.532 153.504 307.127 153.584 307.096 155.291C307.199 156.804 307.731 156.961 308.828 157.022C310.777 156.461 311.623 155.908 311.714 153.559C311.564 151.444 310.883 150.675 307.673 150.672C301.804 152.727 299.9 154.791 299.591 160.486C299.475 161.693 300.121 162.156 301.9 162.795C302.726 163.018 303.131 162.879 303.632 161.641C303.761 160.744 303.179 160.381 301.323 159.908ZM365.402 113.726C359.963 118.176 357.691 120.689 357.898 125.272C350.678 125.371 346.751 126.255 340.002 129.313C344.794 118.229 349.713 114.133 365.402 113.726Z" fill="#F8F7FD"/>
<path d="M487.211 120.654C485.055 125.136 482.854 126.432 477.397 127.004C459.361 126.673 451.746 125.977 443.914 123.54C437.639 123.47 436.121 124.614 435.832 128.159C435.832 130.468 436.242 130.992 438.718 131.622C442.418 131.841 442.373 130.545 442.182 128.159C441.644 129.35 441.089 129.7 439.296 129.313C438.366 126.901 439.392 126.419 442.759 126.427C451.991 129.089 460.797 130.096 478.552 131.622C513.403 132.858 519.221 127.364 517.23 111.995C516.48 107.1 513.898 106.012 507.994 105.067C501.406 105.499 498.18 107.376 497.602 114.304C497.602 118.345 499.912 120.654 504.53 121.231C509.148 121.231 509.671 116.693 507.994 113.149C507.19 115.139 506.473 115.946 504.53 116.613C501.12 113.695 501.918 111.917 507.417 108.531C513.594 109.175 514.639 110.884 513.767 115.458C512.84 125.602 504.704 127.997 482.016 128.736L482.085 128.693C487.456 125.379 490.489 123.507 490.098 117.19C489.708 114.728 488.495 113.967 484.325 113.726C480.599 114.2 479.236 115.12 478.552 118.345C478.552 121.231 478.552 122.963 481.438 122.963C483.747 122.963 485.522 120.657 484.902 118.922C480.284 121.809 480.861 116.613 484.325 116.613C487.788 116.613 487.734 118.029 487.211 120.654Z" fill="#F8F7FD"/>
</svg>
